<svg width="21" height="24" viewBox="0 0 21 24" fill="none" xmlns="http://www.w3.org/2000/svg">
<g id="Group 39891">
<path id="Vector" d="M11.0243 20.9938L7.069 19.5829C6.84226 19.5074 6.59033 19.5829 6.46436 19.7845C6.3384 19.986 6.21243 20.1876 6.13685 20.3891C5.63299 21.7748 6.36359 23.3367 7.77441 23.8406C9.18523 24.3445 10.722 23.6139 11.2259 22.203C11.3015 22.0015 11.3519 21.7748 11.377 21.5228C11.377 21.2961 11.2259 21.0693 11.0243 20.9938Z" fill="#2D2D2D"/>
<path id="Vector_2" d="M19.2875 20.0873C19.3379 19.7598 19.3127 19.4323 19.1867 19.1552C19.1867 19.13 18.2545 16.7618 19.9173 12.1011C21.1014 8.82595 20.1692 5.72718 17.4736 3.73692L17.6751 3.15747C18.1034 1.92301 17.4736 0.562571 16.2391 0.134286C15.0046 -0.293999 13.6442 0.335832 13.2159 1.5703L13.0143 2.17494C9.66365 1.97339 7.01836 3.76211 5.83428 7.03723C4.17152 11.698 1.95452 12.9324 1.95452 12.9324C1.6522 13.0836 1.40027 13.3103 1.24911 13.5875C1.22391 13.6379 1.19872 13.6882 1.17353 13.7386L0.669664 15.1243C0.518504 15.5274 0.745243 15.9808 1.14833 16.1068L17.7759 22.0776C18.179 22.2288 18.6324 22.002 18.7584 21.5989L19.2623 20.2133C19.2623 20.1881 19.2875 20.1377 19.2875 20.0873Z" fill="#2D2D2D"/>
</g>
</svg>
