<svg width="26" height="25" viewBox="0 0 26 25" fill="none" xmlns="http://www.w3.org/2000/svg">
<path d="M23.6063 8.40653L12.3552 3.14236C11.6042 2.79 10.7083 3.11442 10.3559 3.86536L9.49219 5.71317L8.30401 8.25389C7.95166 9.00484 8.27608 9.9008 9.02702 10.251L11.095 11.2189L10.4677 12.5586C10.4204 12.6574 10.415 12.7702 10.4537 12.8723C10.4891 12.9765 10.5665 13.0592 10.6653 13.1065L11.1681 13.3428L10.0154 15.8041C9.73713 16.4014 9.13014 16.786 8.47267 16.786H5.2057C5.1262 16.0823 4.53426 15.5322 3.80911 15.5322H2.82506V14.2667C2.82506 14.039 2.64028 13.8542 2.41253 13.8542C2.18478 13.8542 2 14.039 2 14.2667V22.0253C2 22.2531 2.18478 22.4379 2.41253 22.4379C2.64028 22.4379 2.82506 22.2531 2.82506 22.0253V20.7576H3.80911C4.53533 20.7576 5.12622 20.2076 5.2057 19.5039H8.47267C10.1808 19.5039 11.7537 18.5059 12.4767 16.9568L13.6294 14.4923L14.4577 14.8802C14.5125 14.9081 14.5737 14.9188 14.6307 14.9188C14.7875 14.9188 14.9358 14.8308 15.0045 14.6825L15.6319 13.3428L18.192 14.5418C18.3241 14.6019 18.4616 14.632 18.5959 14.632C18.9558 14.632 19.3028 14.429 19.465 14.0788L20.65 14.6342C20.7821 14.6975 20.9196 14.7244 21.0539 14.7244C21.4138 14.7244 21.7608 14.5214 21.9231 14.1711L23.1714 11.5058C23.3938 11.0277 23.1875 10.4551 22.7095 10.2328L22.616 10.1887L23.642 9.6247C23.8697 9.50115 24.0072 9.26159 23.9997 9.00268C23.9911 8.74377 23.8407 8.51281 23.6033 8.40322L23.6063 8.40653ZM4.39883 19.3471C4.39883 19.6716 4.13455 19.9326 3.81012 19.9326H2.82607V16.3574H3.81012C4.13456 16.3574 4.39883 16.6216 4.39883 16.9461V19.3471ZM11.7309 16.6077C11.1422 17.8668 9.86374 18.6789 8.47464 18.6789H5.22389V17.6121H8.47464C9.45118 17.6121 10.3504 17.0406 10.765 16.1575L11.9178 13.6931L12.8836 14.1443L11.7308 16.6087L11.7309 16.6077ZM14.4349 13.9595L11.3904 12.535L11.8416 11.5692L14.8861 12.9937L14.4349 13.9595ZM18.7192 13.7307C18.6891 13.7962 18.6096 13.8242 18.543 13.7941L9.37709 9.50651C9.03867 9.34752 8.89258 8.9425 9.04942 8.60412L10.0646 6.43725L11.9318 7.31174L19.9654 11.0685L18.7192 13.7307ZM22.4264 11.1567L21.1781 13.8242C21.1588 13.8682 21.1233 13.8875 21.104 13.8929C21.0846 13.9015 21.046 13.909 21.0019 13.8897L19.817 13.3343L20.8322 11.1674L21.7206 10.6808L22.3641 10.9805C22.4297 11.0138 22.4576 11.0901 22.4275 11.1567H22.4264ZM20.4992 10.4089L10.4136 5.68959L11.1044 4.21564C11.2634 3.87723 11.6684 3.73114 12.0035 3.88798L23.0077 9.0361L20.4992 10.408L20.4992 10.4089Z" fill="white"/>
<path d="M18.324 11.7755C18.0275 11.6348 17.6697 11.7648 17.529 12.0645C17.3883 12.361 17.5183 12.7188 17.818 12.8595C17.8975 12.8982 17.9834 12.9143 18.0715 12.9143C18.1403 12.9143 18.2091 12.9035 18.2746 12.8788C18.4261 12.8241 18.5442 12.7166 18.613 12.5705C18.6785 12.4244 18.6871 12.2622 18.6323 12.1139C18.5797 11.9624 18.4701 11.8443 18.324 11.7755Z" fill="white"/>
</svg>
