<svg width="22" height="19" viewBox="0 0 22 19" fill="none" xmlns="http://www.w3.org/2000/svg">
<path fill-rule="evenodd" clip-rule="evenodd" d="M4.95424 11.2271H1.27856C1.1164 11.2271 1.00829 11.092 1.03532 10.9839C1.03532 7.95682 2.27853 5.22714 4.25153 3.22709C8.19748 -0.908048 15.2515 -1.09724 19.4137 2.82168L20.1705 2.17306C20.3596 1.98382 20.6569 2.01087 20.8461 2.20011C21.0353 2.41628 21.0353 2.68655 20.8732 2.90279L20.2245 3.6866C21.9272 5.60549 22.9813 8.17306 22.9813 10.9568C22.9813 11.119 22.8732 11.2271 22.711 11.2271H19.0353C18.8732 11.2271 18.765 11.119 18.765 10.9568C18.765 9.4433 18.2786 8.06498 17.4677 6.95684L14.765 10.2001C14.8461 10.4434 14.8732 10.6866 14.8732 10.9568C14.711 14.7947 9.25153 14.7947 9.08937 10.9568C9.06234 9.01084 11.0894 7.57847 12.9002 8.20011L16.0894 5.55144C11.738 2.17306 5.19748 5.38925 5.22451 10.9568C5.22451 11.119 5.1164 11.2271 4.95424 11.2271ZM1.5218 10.6866H4.65694C4.73802 8.87571 5.46775 7.22711 6.60286 5.9839L4.38667 3.76763C2.65694 5.57844 1.60288 8.01087 1.5218 10.6866ZM7.00826 5.57849C8.25153 4.41633 9.90018 3.68655 11.711 3.63249V0.497412C9.03532 0.551439 6.60286 1.63252 4.79207 3.36222L7.00826 5.57849ZM17.8191 6.55144C18.711 7.7136 19.2515 9.14598 19.3056 10.6866H22.4407C22.3596 8.14601 21.4137 5.84876 19.8461 4.11901L17.8191 6.55144ZM12.2515 3.63249C13.8461 3.68655 15.3056 4.2812 16.4948 5.20009L18.9272 3.14606C17.1434 1.55144 14.8191 0.551439 12.2515 0.497412V3.63249ZM4.95426 12.7407H1.27859C0.900208 12.7407 0.900208 12.2001 1.27859 12.2001H4.95426C5.30561 12.2001 5.30561 12.7407 4.95426 12.7407ZM19.0353 12.2001C18.684 12.2001 18.684 12.7407 19.0353 12.7407H22.711C23.0623 12.7407 23.0623 12.2001 22.711 12.2001H19.0353ZM5.54883 15.2001H22.711C22.8732 15.2001 22.9813 15.3352 22.9542 15.4704V18.1731C22.9542 18.3352 22.8461 18.4433 22.684 18.4433H14.1164H5.54883H1.25153C1.08937 18.4433 0.981262 18.3352 0.981262 18.1731V15.4704C0.981262 15.3082 1.08937 15.2001 1.25153 15.2001H5.54883ZM5.30559 15.7406H1.54883V17.9028H5.30559V15.7406ZM13.8732 15.7406H10.1164V17.9028H13.8732V15.7406ZM18.684 17.9028H22.4407V15.7406H18.684V17.9028Z" fill="white"/>
</svg>
