<svg xmlns="http://www.w3.org/2000/svg" viewBox="0 0 104 130" fill="none" x="0px" y="0px"><path fill-rule="evenodd" clip-rule="evenodd" d="M25.7 59.5403H12.1C11.5 59.5403 11.1 59.0403 11.2 58.6404C11.2 47.4402 15.7999 37.3404 23.1 29.9402C37.7 14.6402 63.8 13.9402 79.2 28.4402L82 26.0403C82.7 25.3401 83.8 25.4402 84.5 26.1404C85.2 26.9402 85.2 27.9402 84.6 28.7403L82.2 31.6404C88.5 38.7403 92.4 48.2403 92.4 58.5403C92.4 59.1402 92 59.5403 91.4 59.5403H77.7999C77.2 59.5403 76.7999 59.1402 76.7999 58.5403C76.7999 52.9402 75 47.8404 72 43.7403L62 55.7403C62.3 56.6404 62.4 57.5403 62.4 58.5403C61.8 72.7403 41.6 72.7403 41 58.5403C40.9 51.3401 48.4 46.0403 55.1 48.3404L66.9 38.5403C50.8 26.0403 26.6 37.9402 26.7 58.5403C26.7 59.1402 26.3 59.5403 25.7 59.5403ZM13 57.5403H24.6C24.9 50.8401 27.6 44.7403 31.7999 40.1404L23.6 31.9402C17.2 38.6402 13.3 47.6402 13 57.5403ZM33.2999 38.6404C37.9 34.3404 44 31.6402 50.7 31.4402V19.8404C40.8 20.0403 31.7999 24.0403 25.1 30.4402L33.2999 38.6404ZM73.2999 42.2403C76.6 46.5403 78.6 51.8401 78.7999 57.5403H90.4C90.1 48.1402 86.6 39.6404 80.7999 33.2403L73.2999 42.2403ZM52.7 31.4402C58.6 31.6402 64 33.8404 68.4 37.2403L77.4 29.6404C70.8 23.7403 62.2 20.0403 52.7 19.8404V31.4402ZM25.7001 65.1404H12.1001C10.7001 65.1404 10.7001 63.1404 12.1001 63.1404H25.7001C27.0001 63.1404 27.0001 65.1404 25.7001 65.1404ZM77.7999 63.1404C76.5 63.1404 76.5 65.1404 77.7999 65.1404H91.4C92.7 65.1404 92.7 63.1404 91.4 63.1404H77.7999ZM27.9 74.2403H91.4C92 74.2403 92.4 74.7403 92.3 75.2403V85.2403C92.3 85.8404 91.9 86.2403 91.3 86.2403H59.6H27.9H12C11.4 86.2403 11 85.8404 11 85.2403V75.2403C11 74.6402 11.4 74.2403 12 74.2403H27.9ZM27 76.2403H13.1V84.2403H27V76.2403ZM58.7 76.2403H44.8V84.2403H58.7V76.2403ZM76.5 84.2403H90.4V76.2403H76.5V84.2403Z" fill="black"/><text x="0" y="119" fill="#000000" font-size="5px" font-weight="bold" font-family="'Helvetica Neue', Helvetica, Arial-Unicode, Arial, Sans-serif">Created by Charco Design</text><text x="0" y="124" fill="#000000" font-size="5px" font-weight="bold" font-family="'Helvetica Neue', Helvetica, Arial-Unicode, Arial, Sans-serif">from the Noun Project</text></svg>