<svg width="14" height="15" viewBox="0 0 14 15" fill="none" xmlns="http://www.w3.org/2000/svg">
<path d="M7.7315 13.1367C7.53843 13.2258 7.31566 13.2704 7.09288 13.2704C6.87011 13.2704 6.64734 13.2258 6.45427 13.1367C5.75625 13.1367 5.19189 13.7011 5.19189 14.3991V14.8298C5.19189 14.9189 5.2513 14.9783 5.34041 14.9783H8.83051C8.91962 14.9783 8.97902 14.9189 8.97902 14.8298V14.3991C8.99387 13.7011 8.42952 13.1367 7.7315 13.1367Z" fill="black"/>
<path d="M7.09128 12.7675C7.68184 12.7675 8.16059 12.2888 8.16059 11.6982C8.16059 11.1077 7.68184 10.6289 7.09128 10.6289C6.50072 10.6289 6.02197 11.1077 6.02197 11.6982C6.02197 12.2888 6.50072 12.7675 7.09128 12.7675Z" fill="black"/>
<path d="M12.3643 13.1367C12.1712 13.2258 11.9633 13.2704 11.7257 13.2704C11.4881 13.2704 11.2802 13.2258 11.0871 13.1367C10.3891 13.1367 9.82471 13.7011 9.82471 14.3991V14.8298C9.82471 14.9189 9.88411 14.9783 9.97322 14.9783H13.4782C13.5673 14.9783 13.6267 14.9189 13.6267 14.8298V14.3991C13.6267 13.7011 13.0623 13.1367 12.3643 13.1367Z" fill="black"/>
<path d="M11.726 12.7675C12.3166 12.7675 12.7954 12.2888 12.7954 11.6982C12.7954 11.1077 12.3166 10.6289 11.726 10.6289C11.1355 10.6289 10.6567 11.1077 10.6567 11.6982C10.6567 12.2888 11.1355 12.7675 11.726 12.7675Z" fill="black"/>
<path d="M3.08306 13.1367C2.88999 13.2258 2.66722 13.2704 2.44445 13.2704C2.22168 13.2704 2.01375 13.2258 1.80583 13.1367C1.10781 13.1367 0.543457 13.7011 0.543457 14.3991V14.8298C0.543457 14.9189 0.602863 14.9783 0.691972 14.9783H4.18207C4.27118 14.9783 4.33059 14.9189 4.33059 14.8298V14.3991C4.34544 13.7011 3.78108 13.1367 3.08306 13.1367Z" fill="black"/>
<path d="M2.45651 12.7675C3.04708 12.7675 3.52582 12.2888 3.52582 11.6982C3.52582 11.1077 3.04708 10.6289 2.45651 10.6289C1.86595 10.6289 1.38721 11.1077 1.38721 11.6982C1.38721 12.2888 1.86595 12.7675 2.45651 12.7675Z" fill="black"/>
<path d="M13.4628 9.00994H12.7796V6.42578H10.5667C10.1806 7.48024 10.3737 8.38618 10.6856 9.00994H3.51228C3.80931 8.40103 4.01723 7.48024 3.6311 6.42578H1.40337V9.00994H0.720205C0.527136 9.00994 0.36377 9.17331 0.36377 9.36638C0.36377 9.55944 0.527136 9.72281 0.720205 9.72281H13.4479C13.641 9.72281 13.8044 9.55944 13.8044 9.36638C13.8192 9.17331 13.6558 9.00994 13.4628 9.00994Z" fill="black"/>
<path d="M4.75927 1.58397H9.40778C9.43748 3.32159 9.74937 4.33149 10.4919 5.72753H12.7791V1.22753C12.7791 1.03446 12.6157 0.871094 12.4226 0.871094H1.75927C1.5662 0.871094 1.40283 1.03446 1.40283 1.22753V5.72753H3.68996C4.43253 4.33149 4.72956 3.32159 4.75927 1.58397Z" fill="black"/>
</svg>
