<svg width="17" height="16" viewBox="0 0 17 16" fill="none" xmlns="http://www.w3.org/2000/svg">
<path d="M11.7206 9.02344C12.0694 9.37674 12.2983 9.84842 12.343 10.3718C12.8143 10.4775 13.1681 10.8989 13.1681 11.4017C13.1681 11.9843 12.6943 12.4581 12.1118 12.4581C11.5293 12.4581 11.0555 11.9844 11.0555 11.4017C11.0555 10.908 11.3965 10.4935 11.855 10.3782C11.7951 9.81527 11.4594 9.3338 10.9858 9.07144L8.56308 11.3415L6.10218 9.03552C5.5554 9.30523 5.17483 9.85968 5.15426 10.5046C5.24846 10.5593 5.32438 10.644 5.37108 10.7461C5.71818 10.91 6.02495 11.2546 6.25957 11.7457C6.29908 11.8285 6.30397 11.9217 6.27524 12.0069C6.41597 12.3694 6.49646 12.7653 6.49646 13.0977C6.49646 13.5637 6.49646 14.0042 5.98855 14.1173C5.93352 14.1632 5.86479 14.1882 5.79246 14.1882H5.4532C5.28291 14.1882 5.1443 14.0496 5.1443 13.8794L5.14544 13.8576C5.15687 13.6981 5.29189 13.5707 5.4532 13.5707H5.79246C5.82708 13.5707 5.8612 13.5764 5.89385 13.5882C5.91426 13.5821 5.92095 13.5776 5.92095 13.5776C5.95883 13.5105 5.95883 13.2316 5.95883 13.0977C5.95883 12.8278 5.89124 12.5018 5.77271 12.1983C5.71132 12.1634 5.66169 12.1106 5.63099 12.0466C5.42512 11.6158 5.14544 11.3376 4.91801 11.3376C4.68552 11.3376 4.39181 11.6385 4.18708 12.0858C4.15361 12.1588 4.09483 12.2184 4.02267 12.2535C3.91573 12.5434 3.85695 12.8419 3.85695 13.0976C3.85695 13.2099 3.85695 13.5087 3.90006 13.5785C3.90055 13.5785 3.91018 13.5843 3.93695 13.5909C3.97206 13.5776 4.00977 13.5705 4.04748 13.5705H4.3874C4.5443 13.5705 4.67557 13.6889 4.69353 13.8434L4.69516 13.8468L4.69581 13.8672C4.69581 14.0494 4.55736 14.188 4.38724 14.188H4.04732C3.97989 14.188 3.91459 14.1655 3.86104 14.1243C3.66691 14.0879 3.5301 14.0022 3.44308 13.8628C3.33842 13.6941 3.31916 13.4727 3.31916 13.0974C3.31916 12.7678 3.39508 12.3888 3.53336 12.0265C3.51295 11.949 3.51981 11.868 3.55361 11.7952C3.69761 11.4806 3.88046 11.211 4.08275 11.0163C4.19377 10.9092 4.31312 10.8231 4.43818 10.7603C4.4852 10.6504 4.56699 10.5603 4.66675 10.5034C4.68079 9.94327 4.90577 9.43601 5.26577 9.05642C3.39361 9.5325 2.0083 11.2282 2.0083 13.2486C2.0083 15.4029 3.58267 15.5088 5.64406 15.5088C5.86887 15.5088 6.09957 15.5075 6.33516 15.5075H10.7913C11.0256 15.5075 11.2566 15.5088 11.4814 15.5088C13.5428 15.5088 15.1177 15.4032 15.1177 13.2486C15.1175 11.178 13.663 9.44874 11.7206 9.02344Z" fill="black"/>
<path d="M8.56234 8.29167C10.6266 8.29167 12.3 6.61828 12.3 4.55404C12.3 2.4898 10.6266 0.816406 8.56234 0.816406C6.4981 0.816406 4.82471 2.4898 4.82471 4.55404C4.82471 6.61828 6.4981 8.29167 8.56234 8.29167Z" fill="black"/>
<path d="M12.113 11.8891C12.3822 11.8891 12.6005 11.6708 12.6005 11.4016C12.6005 11.1323 12.3822 10.9141 12.113 10.9141C11.8438 10.9141 11.6255 11.1323 11.6255 11.4016C11.6255 11.6708 11.8438 11.8891 12.113 11.8891Z" fill="black"/>
</svg>
