<svg width="15" height="15" viewBox="0 0 15 15" fill="none" xmlns="http://www.w3.org/2000/svg">
<path fill-rule="evenodd" clip-rule="evenodd" d="M7.19814 0.113281C11.1124 0.113281 14.2849 3.28578 14.2849 7.19814C14.2849 11.1124 11.1124 14.2849 7.19814 14.2849C3.28578 14.2849 0.113281 11.1124 0.113281 7.19814C0.113281 3.28578 3.28578 0.113281 7.19814 0.113281ZM4.45174 2.17018H4.81199V5.20128H5.0599V2.17018H5.48212V5.20128H5.73197V2.17018H6.08834V5.20128H6.33626V2.17018H6.69069V5.04634C6.69069 5.5809 6.2704 5.76102 5.81332 5.76102L6.17163 12.259C6.16388 12.5418 4.9863 12.5321 4.97274 12.259L5.2652 5.76102C4.82748 5.76102 4.45174 5.52473 4.45174 5.04634V2.17018ZM8.95095 6.09222L9.28989 12.2474C9.28215 12.5321 8.10457 12.5224 8.09101 12.2474L8.36797 6.09803C7.7908 5.88885 7.35696 5.04634 7.35696 4.0392C7.35696 2.87324 7.938 1.93001 8.65268 1.93001C9.36543 1.93001 9.94647 2.87324 9.94647 4.0392C9.94647 5.03859 9.52231 5.87336 8.95095 6.09222Z" fill="black"/>
</svg>
