<svg width="26" height="26" viewBox="0 0 26 26" fill="none" xmlns="http://www.w3.org/2000/svg">
<path d="M4.205 20.4482H2.83035C2.37213 20.4482 2 20.0761 2 19.6179V17.635C2 17.1768 2.37213 16.8047 2.83035 16.8047H3.58155C4.03976 16.8047 4.41189 17.1768 4.41189 17.635V20.2399H4.205V20.4482ZM2.83035 17.2212C2.60263 17.2212 2.41656 17.4073 2.41656 17.635V19.6179C2.41656 19.8456 2.60263 20.0317 2.83035 20.0317H3.99533V17.635C3.99533 17.4073 3.80927 17.2212 3.58155 17.2212H2.83035Z" fill="white"/>
<path d="M16.1561 20.4449H4.00085V18.2773H16.1561V20.4449ZM4.41742 20.0283H15.7396V18.6939H4.41742V20.0283Z" fill="white"/>
<path d="M16.1645 19.5482H15.7396V18.6956H12.0947V14.7383H16.0742C16.5324 14.7383 16.9046 15.1104 16.9046 15.5686V17.2182H16.5783C16.3505 17.2182 16.1645 17.4043 16.1645 17.632V19.5482ZM12.5112 18.2791H15.7479V17.632C15.7479 17.2043 16.0728 16.8516 16.488 16.8072V15.5686C16.488 15.3409 16.3019 15.1548 16.0742 15.1548H12.5112V18.2791Z" fill="white"/>
<path d="M12.4849 18.6956H7.67499V14.7383H12.4849V18.6956ZM8.09155 18.2791H12.0683V15.1548H8.09155V18.2791Z" fill="white"/>
<path d="M4.41747 19.5482H3.99674V17.632C3.99674 17.4043 3.81068 17.2182 3.58296 17.2182H3.25665V15.5686C3.25665 15.1104 3.62878 14.7383 4.087 14.7383H8.06655V18.6956H4.41747V19.5482ZM4.41331 18.2791H7.64999V15.1548H4.087C3.85928 15.1548 3.67321 15.3409 3.67321 15.5686V16.8072C4.08839 16.8516 4.41331 17.2057 4.41331 17.632V18.2791Z" fill="white"/>
<path d="M17.3295 20.4457H15.7466V17.6311C15.7466 17.1729 16.1187 16.8008 16.5769 16.8008H17.3281C17.7863 16.8008 18.1585 17.1729 18.1585 17.6311V19.6126C18.1599 19.8333 18.0752 20.043 17.9196 20.1999C17.7627 20.3582 17.5531 20.4457 17.3295 20.4457ZM16.1631 20.0291H17.3295C17.4406 20.0291 17.5447 19.9861 17.6239 19.9069C17.7016 19.8292 17.7433 19.725 17.7419 19.6153V17.6311C17.7419 17.4034 17.5558 17.2173 17.3281 17.2173H16.5769C16.3492 17.2173 16.1631 17.4034 16.1631 17.6311V20.0291Z" fill="white"/>
<path d="M23.7921 19.2845H19.239C19.1238 19.2845 19.0308 19.1915 19.0308 19.0762V17.2864C19.0308 17.1712 19.1238 17.0781 19.239 17.0781H23.7921C23.9073 17.0781 24.0003 17.1712 24.0003 17.2864V19.0762C24.0003 19.1915 23.9073 19.2845 23.7921 19.2845ZM19.4473 18.868H23.5838V17.4947H19.4473V18.868Z" fill="white"/>
<path d="M19.239 20.4557C19.1238 20.4557 19.0308 20.3626 19.0308 20.2474V19.0755C19.0308 18.9602 19.1238 18.8672 19.239 18.8672C19.3543 18.8672 19.4473 18.9602 19.4473 19.0755V20.2474C19.4473 20.3626 19.3543 20.4557 19.239 20.4557Z" fill="white"/>
<path d="M23.7923 20.4557C23.677 20.4557 23.584 20.3626 23.584 20.2474V19.0755C23.584 18.9602 23.677 18.8672 23.7923 18.8672C23.9075 18.8672 24.0005 18.9602 24.0005 19.0755V20.2474C24.0005 20.3626 23.9075 20.4557 23.7923 20.4557Z" fill="white"/>
<path d="M21.9927 18.3931H21.0374C20.9221 18.3931 20.8291 18.3001 20.8291 18.1848C20.8291 18.0696 20.9221 17.9766 21.0374 17.9766H21.9927C22.1079 17.9766 22.201 18.0696 22.201 18.1848C22.201 18.3001 22.1079 18.3931 21.9927 18.3931Z" fill="white"/>
<path d="M22.2075 17.4812H20.7773C20.6718 17.4812 20.5829 17.4021 20.5704 17.2966L20.3788 15.6303C20.3719 15.572 20.3913 15.5123 20.4302 15.4679C20.4691 15.4234 20.526 15.3984 20.5857 15.3984H22.3978C22.4575 15.3984 22.513 15.4234 22.5533 15.4679C22.5922 15.5123 22.6116 15.5706 22.6047 15.6303L22.4144 17.2966C22.4019 17.4021 22.3131 17.4812 22.2075 17.4812ZM20.9634 17.0647H22.0215L22.1645 15.815H20.819L20.9634 17.0647Z" fill="white"/>
<path d="M21.4396 15.6646C21.3633 15.6646 21.3008 15.6021 21.3008 15.5257V14.1428C21.3008 14.0664 21.3633 14.0039 21.4396 14.0039C21.516 14.0039 21.5785 14.0664 21.5785 14.1428V15.5257C21.5785 15.6021 21.516 15.6646 21.4396 15.6646Z" fill="white"/>
<path d="M21.4302 14.314C21.3774 14.314 21.3274 14.2834 21.3052 14.2348C21.3024 14.2293 21.2455 14.1085 21.2122 13.9432C21.1649 13.7141 21.1844 13.5086 21.2691 13.3476C21.3524 13.1865 21.5093 13.0518 21.7217 12.956C21.8759 12.8879 22.0078 12.863 22.0133 12.8616C22.0758 12.8505 22.1369 12.8824 22.1647 12.9393C22.1675 12.9449 22.2244 13.0657 22.2577 13.2309C22.3049 13.46 22.2855 13.6655 22.2008 13.8266C22.1175 13.9877 21.9606 14.1224 21.7481 14.2182C21.594 14.2862 21.4621 14.3112 21.4565 14.3126C21.4468 14.3126 21.4385 14.314 21.4302 14.314ZM21.9509 13.1643C21.8189 13.2073 21.6037 13.3003 21.5135 13.4739C21.4246 13.6475 21.4732 13.8766 21.5149 14.0085C21.6468 13.9655 21.8606 13.8724 21.9509 13.6989C22.0175 13.5683 22.005 13.4059 21.9828 13.292C21.9745 13.2434 21.9634 13.2004 21.9509 13.1643Z" fill="white"/>
<path d="M22.1702 15.2257C22.0022 15.2257 21.8231 15.1632 21.6481 15.0424C21.5093 14.9466 21.419 14.8466 21.4149 14.8425C21.3732 14.7952 21.3677 14.7258 21.4024 14.6731C21.4051 14.6689 21.4801 14.5564 21.6023 14.4412C21.7731 14.2815 21.9592 14.1912 22.1397 14.1773C22.3202 14.1648 22.5174 14.2273 22.7104 14.3592C22.8492 14.4551 22.9395 14.5536 22.9436 14.5578C22.9853 14.605 22.9909 14.6744 22.9561 14.7272C22.9534 14.7314 22.8784 14.8438 22.7548 14.9591C22.584 15.1188 22.3993 15.209 22.2174 15.2229C22.2036 15.2257 22.1869 15.2257 22.1702 15.2257ZM21.7051 14.7369C21.8106 14.8272 22.0022 14.9619 22.198 14.9466C22.3438 14.9355 22.4757 14.8397 22.5618 14.7605C22.5979 14.7272 22.6284 14.6939 22.6534 14.6647C22.5479 14.5745 22.3563 14.4398 22.1605 14.4551C21.9661 14.4703 21.7967 14.6314 21.7051 14.7369Z" fill="white"/>
<path d="M20.8137 14.6788C20.7109 14.6788 20.6137 14.6607 20.5276 14.626C20.3596 14.5566 20.211 14.4108 20.0986 14.2067C20.018 14.0595 19.9819 13.929 19.9805 13.9234C19.9639 13.8623 19.9903 13.7984 20.0444 13.7679C20.05 13.7651 20.1652 13.6985 20.3277 13.6499C20.5512 13.5832 20.7581 13.586 20.9275 13.6554C21.0955 13.7248 21.2441 13.8693 21.3552 14.0748C21.4357 14.2219 21.4718 14.3525 21.4732 14.358C21.4899 14.4191 21.4635 14.483 21.408 14.5149C21.4024 14.5177 21.2872 14.5843 21.1247 14.6316C21.0178 14.6621 20.9122 14.6788 20.8137 14.6788ZM20.2874 13.9581C20.3402 14.0859 20.4513 14.2928 20.6332 14.3677C20.7692 14.4233 20.9303 14.3969 21.0414 14.365C21.0886 14.3511 21.1316 14.3358 21.1664 14.3205C21.1136 14.1928 21.0025 13.9859 20.8206 13.9109C20.6415 13.8373 20.4165 13.9054 20.2874 13.9581Z" fill="white"/>
<path d="M18.1612 13.2344H17.7446V18.701H18.1612V13.2344Z" fill="white"/>
<path d="M19.6787 12.6572H16.2254C16.1671 12.6572 16.1116 12.6322 16.0713 12.5891C16.0324 12.5461 16.013 12.4878 16.0172 12.4294L16.249 9.90368C16.2588 9.79677 16.349 9.71484 16.4559 9.71484H19.4468C19.5552 9.71484 19.644 9.79677 19.6537 9.90368L19.8842 12.4294C19.8898 12.4878 19.8703 12.5461 19.8301 12.5891C19.7898 12.6322 19.737 12.6572 19.6787 12.6572ZM16.4532 12.2406H19.4496L19.2566 10.1314H16.6462L16.4532 12.2406Z" fill="white"/>
<path d="M17.9529 13.3594C17.4558 13.3594 17.0518 12.9554 17.0518 12.4583V12.25H18.8569L18.8555 12.4597C18.8541 12.9554 18.4486 13.3594 17.9529 13.3594ZM17.5155 12.6666C17.5933 12.8304 17.7599 12.9429 17.9529 12.9429C18.1459 12.9429 18.3125 12.8304 18.3903 12.6666H17.5155Z" fill="white"/>
<path d="M13.6901 13.6604H2.52487C2.40962 13.6604 2.31659 13.5674 2.31659 13.4521V12.7356C2.31659 12.6204 2.40962 12.5273 2.52487 12.5273H13.6901C13.8054 12.5273 13.8984 12.6204 13.8984 12.7356V13.4521C13.8984 13.5674 13.8054 13.6604 13.6901 13.6604ZM2.73315 13.2438H13.4818V12.9439H2.73315V13.2438Z" fill="white"/>
<path d="M3.77871 12.9251H2.94559C2.83034 12.9251 2.7373 12.8321 2.7373 12.7168V10.3841C2.7373 10.2688 2.83034 10.1758 2.94559 10.1758H3.77871C3.89396 10.1758 3.98699 10.2688 3.98699 10.3841V12.7168C3.98699 12.8321 3.89396 12.9251 3.77871 12.9251ZM3.15387 12.5085H3.57043V10.5923H3.15387V12.5085Z" fill="white"/>
<path d="M4.62148 12.9251H3.78836C3.67311 12.9251 3.58008 12.8321 3.58008 12.7168V10.3841C3.58008 10.2688 3.67311 10.1758 3.78836 10.1758H4.62148C4.73673 10.1758 4.82976 10.2688 4.82976 10.3841V12.7168C4.82976 12.8321 4.73673 12.9251 4.62148 12.9251ZM3.99664 12.5085H4.4132V10.5923H3.99664V12.5085Z" fill="white"/>
<path d="M5.46279 12.9251H4.62967C4.51442 12.9251 4.42139 12.8321 4.42139 12.7168V10.3841C4.42139 10.2688 4.51442 10.1758 4.62967 10.1758H5.46279C5.57804 10.1758 5.67107 10.2688 5.67107 10.3841V12.7168C5.67107 12.8321 5.57804 12.9251 5.46279 12.9251ZM4.83795 12.5085H5.25451V10.5923H4.83795V12.5085Z" fill="white"/>
<path d="M6.30605 12.9251H5.47293C5.35768 12.9251 5.26465 12.8321 5.26465 12.7168V10.3841C5.26465 10.2688 5.35768 10.1758 5.47293 10.1758H6.30605C6.4213 10.1758 6.51433 10.2688 6.51433 10.3841V12.7168C6.51433 12.8321 6.4213 12.9251 6.30605 12.9251ZM5.68121 12.5085H6.09777V10.5923H5.68121V12.5085Z" fill="white"/>
<path d="M7.14883 12.9251H6.3157C6.20045 12.9251 6.10742 12.8321 6.10742 12.7168V10.3841C6.10742 10.2688 6.20045 10.1758 6.3157 10.1758H7.14883C7.26407 10.1758 7.35711 10.2688 7.35711 10.3841V12.7168C7.35711 12.8321 7.26407 12.9251 7.14883 12.9251ZM6.52398 12.5085H6.94054V10.5923H6.52398V12.5085Z" fill="white"/>
<path d="M7.99013 12.9251H7.15701C7.04176 12.9251 6.94873 12.8321 6.94873 12.7168V10.3841C6.94873 10.2688 7.04176 10.1758 7.15701 10.1758H7.99013C8.10538 10.1758 8.19841 10.2688 8.19841 10.3841V12.7168C8.19841 12.8321 8.10538 12.9251 7.99013 12.9251ZM7.36529 12.5085H7.78185V10.5923H7.36529V12.5085Z" fill="white"/>
<path d="M8.83291 12.9251H7.99978C7.88454 12.9251 7.7915 12.8321 7.7915 12.7168V10.3841C7.7915 10.2688 7.88454 10.1758 7.99978 10.1758H8.83291C8.94816 10.1758 9.04119 10.2688 9.04119 10.3841V12.7168C9.04119 12.8321 8.94816 12.9251 8.83291 12.9251ZM8.20807 12.5085H8.62463V10.5923H8.20807V12.5085Z" fill="white"/>
<path d="M10.359 12.814C10.2965 12.814 10.2341 12.7848 10.1924 12.7321L8.78442 10.8714C8.715 10.7798 8.73305 10.6492 8.82469 10.5798L9.48841 10.0772C9.53285 10.0438 9.58839 10.03 9.64254 10.0369C9.69669 10.0438 9.74668 10.073 9.78001 10.1174L11.188 11.9767C11.2213 12.0211 11.2352 12.0767 11.2283 12.1308C11.2213 12.185 11.1921 12.235 11.1477 12.2683L10.484 12.7709C10.4465 12.8001 10.4021 12.814 10.359 12.814ZM9.24264 10.7867L10.3993 12.3141L10.7312 12.0628L9.5745 10.5354L9.24264 10.7867Z" fill="white"/>
<path d="M15.2952 9.14037H6.63632C6.52107 9.14037 6.42804 9.04734 6.42804 8.93209V4.20828C6.42804 4.09303 6.52107 4 6.63632 4H15.2952C15.4105 4 15.5035 4.09303 15.5035 4.20828V8.93209C15.5035 9.04734 15.4105 9.14037 15.2952 9.14037ZM6.8446 8.72381H15.087V4.41656H6.8446V8.72381Z" fill="white"/>
<path d="M14.7051 8.40758H7.22647C7.18759 8.40758 7.15704 8.37703 7.15704 8.33815V4.79599C7.15704 4.75711 7.18759 4.72656 7.22647 4.72656H14.7051C14.744 4.72656 14.7746 4.75711 14.7746 4.79599V8.33815C14.7746 8.37703 14.744 8.40758 14.7051 8.40758ZM7.2959 8.26872H14.6357V4.86542H7.2959V8.26872Z" fill="white"/>
<path d="M10.3491 8.39736H7.22628C7.20128 8.39736 7.17768 8.38348 7.16518 8.36126C7.15269 8.33905 7.15407 8.31127 7.16796 8.29045L8.73007 5.89522C8.74256 5.87578 8.76478 5.86328 8.78838 5.86328C8.81199 5.86328 8.83421 5.87578 8.8467 5.89522L10.4074 8.29045C10.4213 8.31127 10.4227 8.33905 10.4102 8.36126C10.3977 8.38348 10.3741 8.39736 10.3491 8.39736ZM7.35402 8.25851H10.22L8.78838 6.06045L7.35402 8.25851Z" fill="white"/>
<path d="M12.4276 8.39887H10.3351C10.3101 8.39887 10.2865 8.38498 10.274 8.36276C10.2615 8.34055 10.2629 8.31278 10.2768 8.29195L11.3224 6.68819C11.3349 6.66875 11.3571 6.65625 11.3807 6.65625C11.4043 6.65625 11.4265 6.66875 11.439 6.68819L12.4859 8.29195C12.4998 8.31278 12.5012 8.34055 12.4887 8.36276C12.4762 8.38498 12.4526 8.39887 12.4276 8.39887ZM10.4628 8.26001H12.2985L11.3793 6.85342L10.4628 8.26001Z" fill="white"/>
<path d="M13.4176 6.46154C13.126 6.46154 12.89 6.22549 12.89 5.93389C12.89 5.6423 13.126 5.40625 13.4176 5.40625C13.7092 5.40625 13.9452 5.6423 13.9452 5.93389C13.9452 6.22549 13.7092 6.46154 13.4176 6.46154ZM13.4176 5.5451C13.2038 5.5451 13.0288 5.72006 13.0288 5.93389C13.0288 6.14773 13.2038 6.32269 13.4176 6.32269C13.6314 6.32269 13.8064 6.14773 13.8064 5.93389C13.8064 5.72006 13.6314 5.5451 13.4176 5.5451Z" fill="white"/>
</svg>
