<svg width="27" height="26" viewBox="0 0 27 26" fill="none" xmlns="http://www.w3.org/2000/svg">
<path d="M13.9984 15.2996C13.8176 15.2996 13.6443 15.2278 13.5165 15.1C13.3887 14.9722 13.3168 14.7989 13.3168 14.6181C13.3058 14.4865 13.2457 14.3638 13.1485 14.2744C13.0513 14.1849 12.924 14.1353 12.7919 14.1353C12.6598 14.1353 12.5325 14.1849 12.4353 14.2744C12.338 14.3638 12.2779 14.4865 12.2669 14.6181C12.2682 14.9841 12.3856 15.3404 12.602 15.6356C12.8184 15.9308 13.1229 16.1498 13.4716 16.2612V16.5706C13.4826 16.7023 13.5427 16.8249 13.6399 16.9144C13.7372 17.0038 13.8644 17.0534 13.9965 17.0534C14.1286 17.0534 14.2559 17.0038 14.3532 16.9144C14.4504 16.8249 14.5105 16.7023 14.5215 16.5706V16.2612C14.9146 16.1363 15.25 15.875 15.4672 15.5245C15.6845 15.1739 15.7691 14.7573 15.7059 14.3497C15.6428 13.9422 15.4359 13.5707 15.1228 13.3024C14.8096 13.034 14.4108 12.8866 13.9984 12.8866C13.8636 12.8866 13.7318 12.8466 13.6197 12.7718C13.5077 12.6969 13.4203 12.5904 13.3687 12.4659C13.3171 12.3414 13.3036 12.2043 13.3299 12.0721C13.3562 11.9399 13.4211 11.8185 13.5165 11.7232C13.6118 11.6278 13.7332 11.5629 13.8654 11.5366C13.9976 11.5103 14.1347 11.5238 14.2592 11.5754C14.3837 11.627 14.4902 11.7144 14.5651 11.8264C14.64 11.9385 14.6799 12.0703 14.6799 12.2051C14.6738 12.2777 14.6829 12.3508 14.7065 12.4198C14.7301 12.4887 14.7678 12.552 14.8171 12.6057C14.8665 12.6594 14.9264 12.7022 14.9932 12.7315C15.0599 12.7608 15.132 12.7759 15.2049 12.7759C15.2778 12.7759 15.3499 12.7608 15.4166 12.7315C15.4834 12.7022 15.5433 12.6594 15.5927 12.6057C15.642 12.552 15.6797 12.4887 15.7033 12.4198C15.7269 12.3508 15.736 12.2777 15.7299 12.2051C15.7286 11.8389 15.6109 11.4827 15.3936 11.1879C15.1764 10.8932 14.8709 10.6752 14.5215 10.5657V10.2562C14.5105 10.1246 14.4504 10.0019 14.3532 9.91249C14.2559 9.82307 14.1286 9.77344 13.9965 9.77344C13.8644 9.77344 13.7372 9.82307 13.6399 9.91249C13.5427 10.0019 13.4826 10.1246 13.4716 10.2562V10.5657C13.0762 10.6882 12.7381 10.9489 12.519 11.3002C12.3 11.6514 12.2146 12.0698 12.2786 12.4787C12.3425 12.8877 12.5514 13.2601 12.8672 13.5277C13.1829 13.7954 13.5845 13.9405 13.9984 13.9366C14.1791 13.9366 14.3525 14.0084 14.4803 14.1362C14.6081 14.264 14.6799 14.4373 14.6799 14.6181C14.6799 14.7989 14.6081 14.9722 14.4803 15.1C14.3525 15.2278 14.1791 15.2996 13.9984 15.2996Z" fill="white"/>
<path d="M15.5271 9.80975C16.4696 10.2861 17.2558 11.0225 17.7928 11.9317C17.8392 12.0084 17.9046 12.0718 17.9827 12.1156C18.0608 12.1595 18.1489 12.1825 18.2385 12.1823C18.3359 12.1818 18.4314 12.1551 18.5148 12.1049C18.5754 12.0687 18.6282 12.0207 18.6698 11.9637C18.7115 11.9067 18.7413 11.8419 18.7575 11.7732C18.7736 11.7044 18.7758 11.6332 18.7639 11.5636C18.7519 11.494 18.7261 11.4275 18.688 11.3681C18.0429 10.2999 17.1094 9.43542 15.995 8.87402C15.8708 8.81847 15.7299 8.81314 15.6018 8.85915C15.4738 8.90515 15.3685 8.99892 15.308 9.12082C15.2475 9.24271 15.2366 9.38327 15.2774 9.51307C15.3182 9.64286 15.4077 9.75182 15.5271 9.81712V9.80975Z" fill="white"/>
<path d="M23.8899 17.1517C23.6755 16.9381 23.4094 16.7837 23.1176 16.7036C22.8257 16.6235 22.5181 16.6205 22.2247 16.6949L21.9631 16.7612C21.93 14.9192 21.4584 9.36002 17.1039 7.47012L18.6881 5.62812C18.8277 5.46449 18.9253 5.26916 18.9722 5.05919C19.019 4.84921 19.0138 4.63095 18.957 4.42345C18.9011 4.21526 18.7944 4.02418 18.6465 3.86731C18.4986 3.71045 18.3142 3.59268 18.1097 3.52455L15.1146 2.49303C14.9159 2.42499 14.7039 2.40537 14.4961 2.4358C14.2883 2.46623 14.0908 2.54584 13.92 2.668C13.7492 2.79015 13.61 2.95133 13.5141 3.13812C13.4181 3.32491 13.3682 3.53191 13.3684 3.74191V3.8598H10.3106C10.0597 3.86004 9.81411 3.93184 9.60258 4.06678C9.39106 4.20171 9.22241 4.39419 9.11644 4.62161C9.01047 4.84902 8.97156 5.10195 9.00429 5.35071C9.03702 5.59946 9.14002 5.83372 9.30121 6.02599L10.5869 7.52538C6.16612 9.56264 5.86403 15.5418 5.86035 17.008L5.72773 17.1222L3.95572 18.4485C3.78095 18.5884 3.64036 18.7662 3.54461 18.9686C3.44886 19.1709 3.40047 19.3924 3.40312 19.6163V22.8987C3.40408 23.0372 3.45951 23.1697 3.55741 23.2676C3.6553 23.3655 3.7878 23.4209 3.92625 23.4219H14.7057C14.8935 23.4219 15.2877 23.4219 23.341 19.9921C23.6035 19.8799 23.8346 19.7051 24.0139 19.4829C24.1932 19.2607 24.3152 18.9979 24.3694 18.7176C24.4236 18.4373 24.4082 18.1479 24.3246 17.8749C24.241 17.6019 24.0917 17.3536 23.8899 17.1517ZM10.1043 5.36287C10.0709 5.32405 10.0494 5.27637 10.0424 5.22559C10.0355 5.17481 10.0434 5.1231 10.0652 5.07673C10.087 5.03035 10.1218 4.99129 10.1654 4.96427C10.2089 4.93725 10.2594 4.92343 10.3106 4.92447H13.9025C13.972 4.92304 14.0406 4.90787 14.1042 4.87983C14.1678 4.85179 14.2252 4.81143 14.2732 4.76109C14.3211 4.71075 14.3586 4.65142 14.3835 4.58651C14.4084 4.52161 14.4203 4.45242 14.4183 4.38293V3.74191C14.4187 3.6987 14.4293 3.65619 14.4491 3.61781C14.4689 3.57942 14.4975 3.54622 14.5325 3.52087C14.5671 3.49558 14.6074 3.4793 14.6499 3.47351C14.6923 3.46773 14.7356 3.4726 14.7756 3.48771L17.7744 4.5045C17.8152 4.51853 17.852 4.54231 17.8815 4.57377C17.911 4.60523 17.9325 4.64341 17.9439 4.68501C17.9563 4.72747 17.9577 4.77238 17.9481 4.81555C17.9384 4.85872 17.918 4.89873 17.8886 4.93184L16.0466 7.10172L15.914 7.07225L15.6966 7.02804L15.354 6.96541C15.3135 6.96541 15.2767 6.94699 15.2361 6.94331H15.0888L14.9414 6.92489H14.9156L14.5841 6.89542H14.4736H14.2673H13.9504H13.8694C13.7036 6.89542 13.5415 6.89542 13.3941 6.89542H13.1694H13.1326L12.8931 6.92121H12.8268L12.5947 6.95068C12.4768 6.95068 12.3626 6.98383 12.2484 7.00594L12.0237 7.02804H11.9463L11.7842 7.06857H11.7474C11.7032 7.06857 11.6553 7.08699 11.6111 7.10172L10.1043 5.36287ZM11.6037 8.25113L11.6663 8.23271C11.8063 8.1885 11.9463 8.14798 12.0937 8.11114H12.1784H12.2042C12.3442 8.08167 12.4879 8.0522 12.6316 8.03009L12.7458 8.01167C12.8931 8.01167 13.0405 7.97483 13.1915 7.96378H13.3536C13.5231 7.96378 13.6926 7.94536 13.8694 7.94536H13.9136C14.0941 7.94536 14.282 7.94536 14.4441 7.94536H14.5509L14.9525 7.98588H15.0446L15.3393 8.03746L15.564 8.07798C15.7298 8.11851 15.8956 8.15903 16.054 8.21061C20.5964 9.60685 20.9022 15.5897 20.9022 17.0264C18.0692 17.7411 15.8772 18.279 14.7093 18.5442L14.6283 18.5627L14.4146 18.6142C14.367 18.1662 14.1542 17.7519 13.8178 17.4522C13.4813 17.1525 13.0453 16.9889 12.5947 16.9933H10.8411C10.3129 16.5245 9.66357 16.2138 8.96719 16.0965C8.27081 15.9793 7.55549 16.0602 6.90293 16.3302C7.01713 14.2634 7.69867 9.53685 11.6037 8.2364V8.25113ZM23.341 18.5221C23.3189 18.6337 23.2697 18.7381 23.1978 18.8261C23.1258 18.9141 23.0333 18.9831 22.9284 19.0269C17.4023 21.3736 15.0556 22.2909 14.6762 22.3719H4.45306V19.6163C4.4532 19.5543 4.46755 19.4932 4.49501 19.4376C4.52247 19.3821 4.56232 19.3335 4.61147 19.2958L6.37611 17.9364C6.39503 17.9224 6.41233 17.9063 6.42769 17.8885C6.93715 17.3816 7.62657 17.0971 8.34521 17.0971C9.06386 17.0971 9.75327 17.3816 10.2627 17.8885C10.3109 17.9373 10.3682 17.9761 10.4315 18.0027C10.4947 18.0293 10.5626 18.043 10.6311 18.0432H12.6021C12.7988 18.039 12.9896 18.1111 13.1345 18.2443C13.2793 18.3775 13.3671 18.5615 13.3794 18.7579C13.3804 18.8174 13.3742 18.8768 13.361 18.9348C13.3605 18.9433 13.3605 18.952 13.361 18.9605L13.3426 19.0047C13.3442 19.0194 13.3442 19.0343 13.3426 19.049C13.3054 19.1348 13.2515 19.2125 13.1842 19.2774C13.0478 19.4126 12.8641 19.4893 12.6721 19.491H9.85013C9.77749 19.4849 9.70438 19.494 9.63542 19.5176C9.56646 19.5412 9.50316 19.5789 9.4495 19.6282C9.39585 19.6776 9.35302 19.7375 9.32373 19.8043C9.29443 19.871 9.2793 19.9431 9.2793 20.016C9.2793 20.0889 9.29443 20.161 9.32373 20.2277C9.35302 20.2945 9.39585 20.3544 9.4495 20.4038C9.50316 20.4531 9.56646 20.4908 9.63542 20.5144C9.70438 20.538 9.77749 20.5471 9.85013 20.541H12.6721C12.9011 20.5405 13.1277 20.4946 13.3389 20.4061C13.55 20.3176 13.7416 20.1881 13.9025 20.0252C13.9918 19.9387 14.0709 19.8423 14.1383 19.7379C14.2967 19.7084 14.5325 19.6605 14.8972 19.5758C15.9656 19.3363 18.106 18.839 22.4605 17.7338C22.5772 17.7036 22.6997 17.7043 22.816 17.736C22.9323 17.7676 23.0383 17.8291 23.1236 17.9143C23.2065 17.9903 23.2696 18.0854 23.3074 18.1913C23.3453 18.2973 23.3568 18.4108 23.341 18.5221Z" fill="white"/>
</svg>
