<svg width="10" height="18" viewBox="0 0 10 18" fill="none" xmlns="http://www.w3.org/2000/svg">
<g id="Link" clip-path="url(#clip0_68_19)">
<path id="Vector" d="M6.57841 8.53104C6.57841 8.53104 6.69693 8.41013 6.93396 8.16832C7.17099 7.9265 7.28951 7.46383 7.28951 6.7803C7.28951 6.09677 7.05248 5.51318 6.57841 5.02955C6.10434 4.54592 5.5323 4.30411 4.86228 4.30411C4.19226 4.30411 3.62022 4.54592 3.14615 5.02955C2.67208 5.51318 2.43505 6.09677 2.43505 6.7803C2.43505 7.46383 2.67208 8.04741 3.14615 8.53104C3.62022 9.01467 4.19226 9.25649 4.86228 9.25649C5.5323 9.25649 6.10434 9.01467 6.57841 8.53104ZM9.71675 6.7803C9.71675 7.48317 9.61245 8.06031 9.40386 8.5117L5.95264 15.9983C5.8515 16.2111 5.70138 16.3788 5.50227 16.5013C5.30316 16.6238 5.08983 16.6851 4.86228 16.6851C4.63473 16.6851 4.42139 16.6238 4.22229 16.5013C4.02318 16.3788 3.87622 16.2111 3.7814 15.9983L0.320698 8.5117C0.112108 8.06031 0.0078125 7.48317 0.0078125 6.7803C0.0078125 5.41323 0.481881 4.24607 1.43002 3.27881C2.37816 2.31155 3.52224 1.82792 4.86228 1.82792C6.20231 1.82792 7.3464 2.31155 8.29454 3.27881C9.24268 4.24607 9.71675 5.41323 9.71675 6.7803Z" fill="#999999"/>
</g>
<defs>
<clipPath id="clip0_68_19">
<rect width="9.72387" height="17.3333" fill="white" transform="matrix(1 0 0 -1 0 17.9231)"/>
</clipPath>
</defs>
</svg>
