<svg width="12" height="16" viewBox="0 0 12 16" fill="none" xmlns="http://www.w3.org/2000/svg">
<path d="M5.99966 0.320312C3.15166 0.320312 0.847656 2.62431 0.847656 5.47231C0.847656 7.50431 3.45566 12.3043 4.95966 14.9123C5.42366 15.7123 6.57566 15.7123 7.03966 14.9123C8.54366 12.3043 11.1517 7.48831 11.1517 5.47231C11.1517 2.62431 8.84766 0.320312 5.99966 0.320312ZM5.99966 8.41631C4.38366 8.41631 3.05566 7.10431 3.05566 5.47231C3.05566 3.85631 4.36766 2.52831 5.99966 2.52831C7.61566 2.52831 8.94366 3.84031 8.94366 5.47231C8.94366 7.10431 7.61566 8.41631 5.99966 8.41631Z" fill="black"/>
<path d="M6.89547 4.38384L5.61547 5.82384L5.10347 5.23184C4.92747 5.03984 4.60747 5.02384 4.39947 5.19984C4.19147 5.37584 4.17547 5.69584 4.35147 5.90384L5.23147 6.91184C5.32747 7.02384 5.45547 7.07184 5.59947 7.07184C5.74347 7.07184 5.87147 7.00784 5.96747 6.91184L7.63147 5.03984C7.80747 4.83184 7.79147 4.52784 7.58347 4.33584C7.39147 4.15984 7.07147 4.17584 6.89547 4.38384Z" fill="black"/>
</svg>
