<svg width="22" height="20" viewBox="0 0 22 20" fill="none" xmlns="http://www.w3.org/2000/svg">
<g id="Frame 39684">
<path id="Vector" fill-rule="evenodd" clip-rule="evenodd" d="M17.7732 1.40658C16.998 0.620961 15.9779 0.132044 14.8868 0.0231355C13.7958 -0.0857731 12.7012 0.192065 11.7896 0.80931C10.878 1.42656 10.2058 2.34502 9.8875 3.4082C9.56924 4.47138 9.62459 5.6135 10.0441 6.63996C10.4637 7.66642 11.2215 8.5137 12.1884 9.03745C13.1553 9.56119 14.2715 9.72899 15.3468 9.51225C16.4221 9.29551 17.3899 8.70764 18.0855 7.84882C18.781 6.98999 19.1612 5.91334 19.1612 4.80231C19.162 4.17155 19.0398 3.54685 18.8016 2.9641C18.5634 2.38135 18.2139 1.85204 17.7732 1.40658ZM1.87987 12.0771L0.204155 13.0937C0.151252 13.1283 0.106377 13.1742 0.0726124 13.2281C0.0388477 13.2819 0.016994 13.3426 0.00855275 13.4058C-0.0172247 13.5713 0.0156982 13.7407 0.101477 13.884L3.4642 19.6568C3.50668 19.7323 3.56165 19.7999 3.62669 19.8565C3.68679 19.9072 3.75575 19.9461 3.82999 19.971C3.89379 19.9941 3.96161 20.0035 4.02919 19.9988C4.08717 19.9933 4.14317 19.9745 4.19296 19.9439L5.8697 18.9271C5.9226 18.8924 5.96748 18.8466 6.00124 18.7927C6.03501 18.7388 6.05686 18.6782 6.0653 18.6149C6.09087 18.4493 6.05767 18.2799 5.97161 18.1368L2.60889 12.364C2.56639 12.2885 2.51143 12.2209 2.4464 12.1642C2.38626 12.1136 2.31731 12.0748 2.24309 12.0498C2.17923 12.0266 2.11131 12.0171 2.04364 12.022C1.98572 12.0274 1.9298 12.0462 1.88013 12.0768L1.87987 12.0771ZM3.47549 12.5755C4.56491 11.562 5.61061 10.9614 6.61258 10.7736C7.13428 10.681 7.66923 10.6988 8.18383 10.8258C8.69842 10.9528 9.18154 11.1863 9.60283 11.5116C10.3624 12.0511 12.1988 12.4655 13.5282 12.7657C13.8648 12.8416 14.1661 12.9095 14.4387 12.9787L14.4508 12.9821C14.583 13.017 14.7071 13.0783 14.8157 13.1623C14.9243 13.2463 15.0154 13.3514 15.0836 13.4714C15.2239 13.7124 15.2665 13.9993 15.2024 14.2716L15.1993 14.283C15.1304 14.5537 14.9585 14.7858 14.7212 14.9285C14.484 15.0712 14.2006 15.113 13.933 15.0447L11.9454 14.5314C11.863 14.5102 11.7756 14.5231 11.7025 14.5671C11.6294 14.6112 11.5766 14.6829 11.5556 14.7664C11.5347 14.85 11.5474 14.9385 11.5909 15.0126C11.6344 15.0867 11.7051 15.1402 11.7876 15.1615L13.7752 15.6747C14.2076 15.7849 14.6654 15.7172 15.0488 15.4864C15.4321 15.2556 15.7097 14.8805 15.821 14.443C15.821 14.4378 15.8236 14.4323 15.8246 14.4271C15.9011 14.1086 15.8857 13.7746 15.7805 13.4646L20.0373 10.3152C20.0406 10.3126 20.0568 10.3017 20.0848 10.283C20.3257 10.1241 20.6161 10.0611 20.9 10.1064C21.0365 10.1263 21.1677 10.1733 21.2862 10.2447C21.4047 10.3162 21.5081 10.4106 21.5905 10.5226C21.5921 10.5246 21.6013 10.5387 21.6188 10.566C21.7845 10.8173 21.8504 11.1228 21.8034 11.4213C21.7514 11.729 21.591 12.0072 21.3521 12.2043L15.7502 16.9293C15.452 17.189 15.1014 17.3796 14.7231 17.4881C14.3447 17.5965 13.9476 17.62 13.5593 17.557L7.87501 16.7319C7.59117 16.6871 7.30086 16.7457 7.05564 16.8973L6.26886 17.3707L3.47549 12.5755ZM14.4223 5.12748C14.0605 5.12721 13.7115 4.99175 13.442 4.74702C13.1726 4.5023 13.0016 4.16549 12.9619 3.80104C12.9222 3.43659 13.0165 3.07009 13.2267 2.77167C13.437 2.47326 13.7484 2.26387 14.1014 2.18359V1.69142C14.1014 1.60519 14.1352 1.52248 14.1954 1.4615C14.2556 1.40052 14.3372 1.36626 14.4223 1.36626C14.5074 1.36626 14.589 1.40052 14.6492 1.4615C14.7094 1.52248 14.7432 1.60519 14.7432 1.69142V2.18359C15.0692 2.25764 15.3607 2.44199 15.5696 2.70629C15.7785 2.97059 15.8923 3.29909 15.8924 3.63771C15.8924 3.72395 15.8586 3.80666 15.7984 3.86764C15.7382 3.92862 15.6566 3.96288 15.5715 3.96288C15.4864 3.96288 15.4048 3.92862 15.3446 3.86764C15.2845 3.80666 15.2507 3.72395 15.2507 3.63771C15.2507 3.4717 15.2021 3.30941 15.1111 3.17137C15.0201 3.03333 14.8907 2.92574 14.7394 2.8622C14.588 2.79866 14.4215 2.78202 14.2608 2.81439C14.1001 2.84675 13.9525 2.92668 13.8367 3.04405C13.7208 3.16142 13.6419 3.31097 13.6099 3.47379C13.5779 3.63661 13.5943 3.80538 13.6569 3.95877C13.7196 4.11216 13.8257 4.24328 13.9619 4.33555C14.0981 4.42782 14.2582 4.4771 14.422 4.47715C14.7839 4.47742 15.1329 4.61288 15.4023 4.8576C15.6718 5.10233 15.8427 5.43914 15.8824 5.80359C15.9222 6.16804 15.8279 6.53453 15.6176 6.83295C15.4074 7.13137 15.096 7.34075 14.7429 7.42104V7.91346C14.7429 7.9997 14.7091 8.08241 14.6489 8.14339C14.5888 8.20437 14.5071 8.23863 14.422 8.23863C14.3369 8.23863 14.2553 8.20437 14.1952 8.14339C14.135 8.08241 14.1012 7.9997 14.1012 7.91346V7.42104C13.7751 7.34699 13.4836 7.16264 13.2748 6.89834C13.0659 6.63404 12.952 6.30553 12.9519 5.96691C12.9519 5.88068 12.9858 5.79797 13.0459 5.73699C13.1061 5.67601 13.1877 5.64175 13.2728 5.64175C13.3579 5.64175 13.4395 5.67601 13.4997 5.73699C13.5599 5.79797 13.5937 5.88068 13.5937 5.96691C13.5937 6.13294 13.6423 6.29524 13.7333 6.43328C13.8243 6.57133 13.9537 6.67892 14.1051 6.74245C14.2564 6.80599 14.423 6.82261 14.5837 6.79022C14.7443 6.75783 14.8919 6.67788 15.0078 6.56049C15.1236 6.44309 15.2025 6.29352 15.2345 6.13068C15.2665 5.96784 15.25 5.79906 15.1874 5.64568C15.1247 5.49229 15.0185 5.36119 14.8823 5.26895C14.746 5.17671 14.5861 5.12748 14.4223 5.12748Z" fill="white"/>
</g>
</svg>
