<svg width="29" height="27" viewBox="0 0 29 27" fill="none" xmlns="http://www.w3.org/2000/svg">
<g id="Frame 39684">
<path id="Vector" fill-rule="evenodd" clip-rule="evenodd" d="M23.1052 2.32856C22.0974 1.30725 20.7713 0.671657 19.3529 0.530076C17.9345 0.388495 16.5115 0.749685 15.3264 1.5521C14.1414 2.35452 13.2675 3.54852 12.8538 4.93066C12.44 6.3128 12.512 7.79755 13.0574 9.13195C13.6028 10.4663 14.5879 11.5678 15.8449 12.2487C17.1019 12.9295 18.5529 13.1477 19.9508 12.8659C21.3487 12.5842 22.6069 11.8199 23.5111 10.7035C24.4153 9.58699 24.9095 8.18734 24.9095 6.74301C24.9106 5.92302 24.7517 5.1109 24.442 4.35333C24.1324 3.59575 23.6781 2.90765 23.1052 2.32856ZM2.44383 16.2002L0.265402 17.5218C0.196628 17.5668 0.13829 17.6264 0.0943961 17.6965C0.050502 17.7665 0.0220923 17.8454 0.0111186 17.9276C-0.022392 18.1427 0.0204076 18.363 0.13192 18.5491L4.50346 26.0538C4.55869 26.152 4.63014 26.2398 4.71469 26.3135C4.79283 26.3794 4.88248 26.4299 4.97899 26.4623C5.06193 26.4923 5.15009 26.5046 5.23794 26.4985C5.31332 26.4913 5.38612 26.4669 5.45085 26.4271L7.63061 25.1052C7.69938 25.0602 7.75772 25.0006 7.80161 24.9305C7.84551 24.8605 7.87392 24.7816 7.88489 24.6994C7.91813 24.4842 7.87498 24.2639 7.76309 24.0779L3.39155 16.5732C3.3363 16.4751 3.26486 16.3872 3.18032 16.3135C3.10213 16.2477 3.0125 16.1972 2.91602 16.1647C2.833 16.1346 2.7447 16.1222 2.65673 16.1285C2.58144 16.1356 2.50873 16.16 2.44416 16.1999L2.44383 16.2002ZM4.51814 16.8482C5.93439 15.5307 7.29379 14.7498 8.59635 14.5057C9.27457 14.3854 9.97 14.4085 10.639 14.5736C11.308 14.7387 11.936 15.0422 12.4837 15.4651C13.4711 16.1664 15.8584 16.7051 17.5867 17.0954C18.0242 17.1941 18.416 17.2824 18.7704 17.3723L18.786 17.3767C18.9579 17.4221 19.1192 17.5018 19.2604 17.611C19.4016 17.7202 19.52 17.8568 19.6086 18.0128C19.7911 18.3262 19.8465 18.6991 19.7631 19.053L19.7591 19.0679C19.6695 19.4198 19.446 19.7215 19.1376 19.9071C18.8291 20.0926 18.4608 20.1469 18.113 20.0581L15.5291 19.3908C15.4219 19.3633 15.3083 19.38 15.2133 19.4373C15.1182 19.4946 15.0496 19.5878 15.0223 19.6964C14.9951 19.805 15.0116 19.9201 15.0681 20.0164C15.1247 20.1127 15.2167 20.1823 15.3238 20.2099L17.9077 20.8771C18.4699 21.0203 19.0651 20.9323 19.5634 20.6323C20.0617 20.3323 20.4226 19.8447 20.5674 19.2759C20.5674 19.2691 20.5707 19.262 20.572 19.2552C20.6714 18.8412 20.6515 18.4069 20.5146 18.004L26.0485 13.9098C26.0528 13.9064 26.0738 13.8922 26.1102 13.8679C26.4234 13.6613 26.8009 13.5795 27.17 13.6383C27.3474 13.6642 27.518 13.7253 27.6721 13.8182C27.8261 13.911 27.9606 14.0337 28.0677 14.1793C28.0697 14.182 28.0817 14.2003 28.1044 14.2358C28.3199 14.5625 28.4056 14.9597 28.3444 15.3477C28.2768 15.7478 28.0683 16.1094 27.7577 16.3656L20.4753 22.5081C20.0875 22.8457 19.6319 23.0935 19.14 23.2345C18.6481 23.3754 18.1318 23.406 17.6271 23.3241L10.2375 22.2514C9.86852 22.1932 9.49111 22.2694 9.17233 22.4665L8.14952 23.082L4.51814 16.8482ZM18.749 7.16572C18.2786 7.16537 17.8249 6.98927 17.4746 6.67113C17.1243 6.35298 16.9021 5.91513 16.8505 5.44135C16.7989 4.96756 16.9214 4.49112 17.1947 4.10318C17.468 3.71523 17.8729 3.44304 18.3319 3.33867V2.69885C18.3319 2.58674 18.3758 2.47922 18.454 2.39995C18.5323 2.32067 18.6384 2.27614 18.749 2.27614C18.8596 2.27614 18.9657 2.32067 19.044 2.39995C19.1222 2.47922 19.1661 2.58674 19.1661 2.69885V3.33867C19.59 3.43493 19.9689 3.67458 20.2405 4.01818C20.512 4.36177 20.66 4.78882 20.6601 5.22903C20.6601 5.34114 20.6162 5.44866 20.538 5.52793C20.4597 5.6072 20.3536 5.65174 20.243 5.65174C20.1324 5.65174 20.0263 5.6072 19.948 5.52793C19.8698 5.44866 19.8259 5.34114 19.8259 5.22903C19.8259 5.01321 19.7627 4.80224 19.6444 4.62279C19.5261 4.44333 19.3579 4.30346 19.1612 4.22086C18.9644 4.13825 18.7479 4.11662 18.539 4.1587C18.3302 4.20078 18.1383 4.30468 17.9877 4.45726C17.837 4.60985 17.7345 4.80426 17.6929 5.01592C17.6513 5.22759 17.6726 5.44699 17.754 5.6464C17.8355 5.84581 17.9734 6.01627 18.1505 6.13622C18.3275 6.25617 18.5357 6.32023 18.7487 6.3203C19.219 6.32065 19.6728 6.49674 20.023 6.81489C20.3733 7.13303 20.5955 7.57088 20.6472 8.04467C20.6988 8.51845 20.5762 8.9949 20.3029 9.38284C20.0296 9.77078 19.6248 10.043 19.1658 10.1474V10.7875C19.1658 10.8996 19.1218 11.0071 19.0436 11.0864C18.9654 11.1657 18.8593 11.2102 18.7487 11.2102C18.638 11.2102 18.5319 11.1657 18.4537 11.0864C18.3755 11.0071 18.3315 10.8996 18.3315 10.7875V10.1474C17.9076 10.0511 17.5287 9.81143 17.2572 9.46784C16.9856 9.12425 16.8376 8.69719 16.8375 8.25699C16.8375 8.14488 16.8815 8.03736 16.9597 7.95809C17.0379 7.87881 17.144 7.83428 17.2547 7.83428C17.3653 7.83428 17.4714 7.87881 17.5496 7.95809C17.6278 8.03736 17.6718 8.14488 17.6718 8.25699C17.6718 8.47282 17.735 8.68381 17.8533 8.86327C17.9716 9.04272 18.1398 9.18259 18.3366 9.26519C18.5333 9.34779 18.7499 9.3694 18.9587 9.32729C19.1676 9.28518 19.3595 9.18125 19.5101 9.02863C19.6607 8.87602 19.7633 8.68157 19.8048 8.46988C19.8464 8.2582 19.8251 8.03878 19.7436 7.83938C19.6621 7.63997 19.524 7.46954 19.3469 7.34963C19.1698 7.22972 18.962 7.16572 18.749 7.16572Z" fill="#303030"/>
</g>
</svg>
