<svg width="22" height="22" viewBox="0 0 22 22" fill="none" xmlns="http://www.w3.org/2000/svg">
<g clip-path="url(#clip0_1191_7324)">
<path d="M6.5373 11.6333C7.47648 11.6333 8.24054 10.869 8.24054 9.92984C8.24054 8.99066 7.47626 8.22616 6.5373 8.22616C5.59834 8.22616 4.83384 8.99044 4.83384 9.92984C4.83384 10.8692 5.59812 11.6333 6.5373 11.6333ZM6.5373 8.87912C7.11634 8.87912 7.58736 9.35058 7.58736 9.92962C7.58736 10.5087 7.11612 10.9799 6.5373 10.9799C5.95848 10.9799 5.48702 10.5087 5.48702 9.92962C5.48702 9.35058 5.95826 8.87912 6.5373 8.87912ZM5.8267 10.1283C5.69954 10.0005 5.69998 9.79366 5.82758 9.66628C5.95562 9.53934 6.1622 9.53956 6.28958 9.66716L6.39914 9.77738L6.78788 9.38864C6.91548 9.26104 7.12228 9.26104 7.24988 9.38864C7.37726 9.51624 7.37726 9.72304 7.24988 9.85064L6.62992 10.4704C6.56876 10.5315 6.4856 10.5661 6.39892 10.5661H6.39848C6.3118 10.5661 6.22886 10.5315 6.16748 10.4699L5.82692 10.1281L5.8267 10.1283ZM6.5373 16.1112C7.47648 16.1112 8.24054 15.3469 8.24054 14.4075C8.24054 13.4681 7.47626 12.7038 6.5373 12.7038C5.59834 12.7038 4.83384 13.4681 4.83384 14.4075C4.83384 15.3469 5.59812 16.1112 6.5373 16.1112ZM6.5373 13.3568C7.11634 13.3568 7.58736 13.8282 7.58736 14.4073C7.58736 14.9863 7.11612 15.4578 6.5373 15.4578C5.95848 15.4578 5.48702 14.9863 5.48702 14.4073C5.48702 13.8282 5.95826 13.3568 6.5373 13.3568ZM5.82692 14.6062C5.69954 14.4786 5.69976 14.2715 5.82758 14.1444C5.95562 14.017 6.16242 14.0174 6.28936 14.145L6.39914 14.255L6.7881 13.8665C6.91526 13.7389 7.12228 13.7391 7.24988 13.8665C7.37748 13.9939 7.37726 14.2009 7.24988 14.3283L6.62992 14.9478C6.56876 15.009 6.48582 15.0435 6.39914 15.0435C6.31224 15.0435 6.2293 15.009 6.16814 14.9474L5.82758 14.6057L5.82692 14.6062ZM20.3029 16.4979C20.3183 16.3125 20.3183 16.1426 20.3029 15.9572L20.9381 15.2505C21.2667 14.8869 21.32 14.3789 21.0745 13.9578L20.8094 13.4985C20.566 13.0761 20.1005 12.869 19.6222 12.9696L18.6921 13.1671C18.5407 13.0609 18.3935 12.976 18.2237 12.8968L17.93 11.9921C17.8022 11.5992 17.4856 11.3262 17.0955 11.2514V3.2788C17.0955 3.01546 16.9917 2.78094 16.7946 2.6001L15.0454 1.01016C14.8705 0.853077 14.6632 0.773438 14.4291 0.773438H4.25898C3.69754 0.773438 3.24082 1.23016 3.24082 1.79182V2.95826H1.7908C1.22936 2.95826 0.772644 3.41498 0.772644 3.97664V19.7542C0.772644 20.3158 1.22936 20.7728 1.7908 20.7728H13.6072C14.1698 20.7728 14.6274 20.3158 14.6274 19.7542V19.3478C14.747 19.4257 14.8672 19.4952 15.0022 19.5584L15.2957 20.4628C15.4464 20.9268 15.8589 21.2266 16.3467 21.2266H16.8791C17.3668 21.2266 17.7793 20.927 17.9302 20.4628L18.2237 19.5584C18.3938 19.4789 18.5409 19.3938 18.6921 19.288L19.6225 19.4855C20.0985 19.5865 20.5654 19.3791 20.8094 18.9569L21.0736 18.4986C21.32 18.0762 21.2667 17.5682 20.9387 17.2052L20.3029 16.4979ZM16.3016 3.03438H15.066C14.7994 3.03438 14.5827 2.81812 14.5827 2.55214V1.47458C14.5911 1.48074 14.5992 1.48756 14.6076 1.49504L16.3016 3.0346V3.03438ZM3.89422 1.79204C3.89422 1.59074 4.0579 1.42684 4.2592 1.42684H13.9295V2.55214C13.9295 3.17826 14.4393 3.68756 15.066 3.68756H16.4428V11.2285H16.3469C15.8591 11.2285 15.4466 11.5281 15.2959 11.9923L15.0025 12.8965C14.8326 12.9757 14.6854 13.0609 14.5339 13.1671L13.6037 12.9696C13.1256 12.8688 12.6603 13.0761 12.4166 13.4982L12.1515 13.958C11.9075 14.3815 11.9612 14.8889 12.2874 15.2499L12.9232 15.9574C12.9078 16.1429 12.9078 16.3125 12.9232 16.4977L12.2879 17.2046C12.0987 17.414 12.0041 17.6723 12.0028 17.9348H4.25898C4.05768 17.9348 3.894 17.7709 3.894 17.5693L3.89422 1.79204ZM13.6074 20.1198H1.7908C1.5895 20.1198 1.42582 19.9559 1.42582 19.7544V3.97664C1.42582 3.77534 1.5895 3.61144 1.7908 3.61144H3.24082V17.5693C3.24082 18.131 3.69754 18.5879 4.25898 18.5879H12.2038L12.4166 18.9571C12.6603 19.3795 13.1267 19.5856 13.6037 19.4855L13.9742 19.4068V19.7542C13.9742 19.9557 13.8096 20.1196 13.6072 20.1196L13.6074 20.1198ZM20.5086 18.1713L20.2435 18.6308C20.1425 18.8064 19.9562 18.8889 19.7582 18.8469L18.685 18.619C18.592 18.5998 18.495 18.6212 18.4191 18.6788C18.2261 18.8262 18.0613 18.9215 17.8314 19.0185C17.7441 19.0552 17.677 19.1283 17.6477 19.2185L17.3094 20.2613C17.2467 20.454 17.0819 20.5737 16.8793 20.5737H16.3469C16.1443 20.5737 15.9797 20.454 15.9172 20.2615L15.5786 19.2185C15.5492 19.1283 15.4823 19.0552 15.3949 19.0185C15.165 18.9215 15.0003 18.8262 14.8071 18.6788C14.7497 18.635 14.6799 18.6117 14.6091 18.6117C14.5864 18.6117 14.5638 18.6141 14.5411 18.6187L14.2366 18.6834C14.2366 18.6834 14.2347 18.6839 14.2336 18.6841L13.4684 18.8467C13.2702 18.8891 13.0836 18.8057 12.9826 18.6308L12.7175 18.171C12.6161 17.9948 12.6372 17.7924 12.7732 17.6419L13.5056 16.8271C13.5685 16.7571 13.5982 16.6634 13.587 16.5699C13.5575 16.3237 13.5575 16.1319 13.587 15.8857C13.5982 15.7922 13.5685 15.6985 13.5056 15.6285L12.7728 14.813C12.6372 14.6629 12.6161 14.4605 12.7175 14.2847L12.9826 13.8249C13.0836 13.6494 13.2702 13.5662 13.4682 13.6089L14.5411 13.8368C14.6348 13.8568 14.7316 13.8348 14.8071 13.777C15.0007 13.6291 15.1655 13.5341 15.3947 13.4375C15.4821 13.4006 15.5492 13.3275 15.5786 13.2373L15.9172 12.1945C15.9797 12.0018 16.1443 11.8821 16.3469 11.8821H16.8793C17.0819 11.8821 17.2467 12.0018 17.3092 12.1943L17.6477 13.2373C17.6772 13.3275 17.7441 13.4006 17.8317 13.4375C18.0607 13.5339 18.2255 13.6291 18.4191 13.777C18.495 13.8348 18.592 13.8566 18.685 13.8368L19.758 13.6089C19.9558 13.5662 20.1425 13.6496 20.2435 13.8252L20.5095 14.2861C20.6114 14.4603 20.5898 14.6623 20.4527 14.8136L19.7206 15.6285C19.6579 15.6985 19.6282 15.7922 19.6394 15.8857C19.6689 16.1319 19.6689 16.3237 19.6394 16.5699C19.6282 16.6634 19.6579 16.7571 19.7206 16.8271L20.4534 17.6426C20.5898 17.7935 20.6114 17.9957 20.5086 18.1713ZM16.6142 14.334C15.5692 14.334 14.7191 15.1837 14.7191 16.228C14.7191 17.2723 15.5692 18.1215 16.6142 18.1215C17.6592 18.1215 18.5073 17.2721 18.5073 16.228C18.5073 15.1839 17.6581 14.334 16.6142 14.334ZM16.6142 17.4686C15.9293 17.4686 15.3721 16.9122 15.3721 16.228C15.3721 15.5438 15.9291 14.987 16.6142 14.987C17.2993 14.987 17.8543 15.5436 17.8543 16.228C17.8543 16.9124 17.2982 17.4686 16.6142 17.4686ZM6.6209 7.26102C7.60738 7.26102 8.40994 6.45912 8.40994 5.47374C8.40994 4.48836 7.6076 3.68624 6.6209 3.68624C5.6342 3.68624 4.83384 4.48814 4.83384 5.47374C4.83384 6.45934 5.63552 7.26102 6.6209 7.26102ZM6.6209 4.33942C7.24724 4.33942 7.75676 4.84828 7.75676 5.47374C7.75676 6.0992 7.24724 6.60784 6.6209 6.60784C5.99456 6.60784 5.48702 6.0992 5.48702 5.47374C5.48702 4.84828 5.99566 4.33942 6.6209 4.33942ZM5.88016 5.6713C5.75256 5.54392 5.75234 5.33712 5.87972 5.2093C6.0071 5.08214 6.2139 5.08126 6.34172 5.20886L6.47394 5.34086L6.9003 4.9145C7.0279 4.7869 7.23492 4.78668 7.36208 4.9145C7.48968 5.04188 7.4899 5.24868 7.36208 5.37628L6.70538 6.03364C6.64158 6.09744 6.55798 6.12956 6.47438 6.12956C6.39078 6.12956 6.3074 6.09766 6.2436 6.03408L5.88038 5.67174L5.88016 5.6713ZM8.98084 4.6978C8.98084 4.51762 9.12714 4.37132 9.30732 4.37132H15.2044C15.3846 4.37132 15.5309 4.51762 15.5309 4.6978C15.5309 4.87798 15.3846 5.02428 15.2044 5.02428H9.30732C9.12714 5.02428 8.98084 4.87798 8.98084 4.6978ZM8.98084 6.25012C8.98084 6.06994 9.12714 5.92364 9.30732 5.92364H15.2044C15.3846 5.92364 15.5309 6.06994 15.5309 6.25012C15.5309 6.4303 15.3846 6.5766 15.2044 6.5766H9.30732C9.12714 6.5766 8.98084 6.4303 8.98084 6.25012ZM8.98084 9.15368C8.98084 8.9735 9.12714 8.8272 9.30732 8.8272H15.2044C15.3846 8.8272 15.5309 8.9735 15.5309 9.15368C15.5309 9.33386 15.3846 9.48016 15.2044 9.48016H9.30732C9.12714 9.48016 8.98084 9.33386 8.98084 9.15368ZM8.98084 10.706C8.98084 10.5258 9.12714 10.3795 9.30732 10.3795H14.7455C14.9257 10.3795 15.072 10.5258 15.072 10.706C15.072 10.8862 14.9257 11.0325 14.7455 11.0325H9.30732C9.12714 11.0325 8.98084 10.8862 8.98084 10.706ZM8.98084 13.6316C8.98084 13.4514 9.12714 13.3051 9.30732 13.3051H11.2431C11.4233 13.3051 11.5696 13.4514 11.5696 13.6316C11.5696 13.8117 11.4233 13.958 11.2431 13.958H9.30732C9.12714 13.958 8.98084 13.8117 8.98084 13.6316ZM8.98084 15.1839C8.98084 15.0037 9.12714 14.8574 9.30732 14.8574H11.1371C11.3172 14.8574 11.4635 15.0037 11.4635 15.1839C11.4635 15.3641 11.3172 15.5104 11.1371 15.5104H9.30732C9.12714 15.5104 8.98084 15.3641 8.98084 15.1839Z" fill="white"/>
</g>
<defs>
<clipPath id="clip0_1191_7324">
<rect width="22" height="22" fill="white"/>
</clipPath>
</defs>
</svg>
