<svg width="23" height="23" viewBox="0 0 23 23" fill="none" xmlns="http://www.w3.org/2000/svg">
<g clip-path="url(#clip0_1191_7315)">
<path fill-rule="evenodd" clip-rule="evenodd" d="M7.54688 0.720703C6.95143 0.720703 6.46875 1.2034 6.46875 1.79883C6.46875 2.26825 6.76876 2.6676 7.1875 2.8156V7.31635L5.40141 8.26758H2.875C2.67652 8.26758 2.51562 8.42847 2.51562 8.62695V12.3585L1.98622 12.6428C1.86962 12.7054 1.79688 12.8271 1.79688 12.9594V20.127C1.20144 20.127 0.71875 20.6096 0.71875 21.2051C0.71875 21.8005 1.20144 22.2832 1.79688 22.2832H21.2031C21.7986 22.2832 22.2812 21.8005 22.2812 21.2051C22.2812 20.6096 21.7986 20.127 21.2031 20.127V8.26758C21.2031 7.67213 20.7204 7.18945 20.125 7.18945H15.8125V2.8156C16.2312 2.6676 16.5312 2.26825 16.5312 1.79883C16.5312 1.2034 16.0486 0.720703 15.4531 0.720703H7.54688ZM11.0547 5.25681L7.90625 6.93358V2.87695H15.0938V6.89444L12.0747 5.26026C11.7568 5.08815 11.3738 5.08686 11.0547 5.25681ZM15.4531 7.9082V7.90626L11.7326 5.89232C11.6266 5.83497 11.499 5.83454 11.3926 5.89117L4.79855 9.40295C4.42128 9.60391 4.29255 10.082 4.51792 10.4452C4.72208 10.7742 5.14553 10.8899 5.48863 10.7104L11.0656 7.79342C11.3778 7.63015 11.7501 7.62969 12.0626 7.79223L17.6473 10.6961C17.9906 10.8746 18.4136 10.7429 18.5948 10.401C18.7759 10.0593 18.6478 9.63554 18.3077 9.45143L15.4567 7.9082H15.4531ZM20.125 7.9082H16.9666L18.6498 8.81936C19.3369 9.19124 19.5957 10.0474 19.2298 10.7376C19.035 11.1052 18.7018 11.3526 18.3281 11.4492V20.127H20.4844V8.26758C20.4844 8.0691 20.3235 7.9082 20.125 7.9082ZM17.3157 11.3338C17.4111 11.3834 17.5095 11.4212 17.6094 11.4476V20.127H13.6562V15.8145C13.6562 15.219 13.1736 14.7363 12.5781 14.7363H10.4219C9.82643 14.7363 9.34375 15.219 9.34375 15.8145V20.127H6.10938V11.2444L7.7169 10.3811L7.70644 10.3615L11.3987 8.43034C11.5028 8.37589 11.6269 8.37575 11.731 8.42991L17.3157 11.3338ZM10.0625 20.127H12.9375V15.8145C12.9375 15.616 12.7766 15.4551 12.5781 15.4551H10.4219C10.2234 15.4551 10.0625 15.616 10.0625 15.8145V20.127ZM1.79688 20.8457C1.5984 20.8457 1.4375 21.0066 1.4375 21.2051C1.4375 21.4036 1.5984 21.5645 1.79688 21.5645H21.2031C21.4016 21.5645 21.5625 21.4036 21.5625 21.2051C21.5625 21.0066 21.4016 20.8457 21.2031 20.8457H1.79688ZM3.90723 10.8242C4.04189 11.0412 4.22499 11.2112 4.43436 11.3281L3.23438 11.9725V8.98633H4.15409C3.6552 9.44838 3.53076 10.2175 3.90723 10.8242ZM5.39062 11.6304L2.51562 13.1743V20.127H5.39062V11.6304ZM15.4531 2.1582C15.6516 2.1582 15.8125 1.9973 15.8125 1.79883C15.8125 1.60035 15.6516 1.43945 15.4531 1.43945H7.54688C7.34839 1.43945 7.1875 1.60035 7.1875 1.79883C7.1875 1.9973 7.34839 2.1582 7.54688 2.1582H15.4531Z" fill="white"/>
</g>
<defs>
<clipPath id="clip0_1191_7315">
<rect width="23" height="23" fill="white" transform="translate(0 0.00195312)"/>
</clipPath>
</defs>
</svg>
