<svg width="26" height="26" viewBox="0 0 26 26" fill="none" xmlns="http://www.w3.org/2000/svg">
<path fill-rule="evenodd" clip-rule="evenodd" d="M9.0715 22.6426V23.4284C9.0715 23.6454 9.2473 23.8212 9.46435 23.8212H23.6071C23.8242 23.8212 24 23.6454 24 23.4284V21.0712C24 20.8542 23.8242 20.6784 23.6071 20.6784H22.7802V13.214C22.7802 12.9969 22.6034 12.8211 22.3873 12.8211H19.4605C19.2444 12.8211 19.0676 12.9969 19.0676 13.214V20.6784H18.3919V15.5714C18.3919 15.3543 18.2151 15.1785 17.999 15.1785H16.9285V3.39286C16.9285 3.1758 16.7527 3 16.5357 3H2.39286C2.1758 3 2 3.1758 2 3.39286V22.2499C2 22.467 2.1758 22.6428 2.39286 22.6428L9.0715 22.6426ZM23.2143 21.4641V23.0355H9.85721V21.4641H23.2143ZM16.1429 15.1784V3.78571H2.78581V21.8571H9.0715V21.0713C9.0715 20.8543 9.2473 20.6785 9.46435 20.6785H10.2913V14.0001C10.2913 13.783 10.4681 13.6072 10.6842 13.6072H13.611C13.8271 13.6072 14.0039 13.783 14.0039 14.0001V20.6785H14.6796V15.5715C14.6796 15.3544 14.8564 15.1786 15.0725 15.1786L16.1429 15.1784ZM15.4652 15.9641H17.6063V20.6784H15.4652V15.9641ZM13.2181 14.3927V20.6784H11.077V14.3927H13.2181ZM21.9944 13.607V20.6784H19.8534V13.607H21.9944Z" fill="white"/>
<path fill-rule="evenodd" clip-rule="evenodd" d="M12.2144 7.64062C11.9973 7.64062 11.8215 7.81643 11.8215 8.03348V12.0337C11.8215 12.2507 11.9973 12.4265 12.2144 12.4265H14.5715C14.7886 12.4265 14.9644 12.2507 14.9644 12.0337V8.03348C14.9644 7.81643 14.7886 7.64062 14.5715 7.64062H12.2144ZM12.6072 8.42634H14.1787V11.6408H12.6072V8.42634Z" fill="white"/>
<path fill-rule="evenodd" clip-rule="evenodd" d="M8.2858 6.5C8.06875 6.5 7.89294 6.6758 7.89294 6.89286V12.0353C7.89294 12.2524 8.06875 12.4282 8.2858 12.4282H10.6429C10.86 12.4282 11.0358 12.2524 11.0358 12.0353V6.89286C11.0358 6.6758 10.86 6.5 10.6429 6.5H8.2858ZM8.67866 7.28473H10.2501V11.6425H8.67866V7.28473Z" fill="white"/>
<path fill-rule="evenodd" clip-rule="evenodd" d="M4.35721 5.35938C4.14016 5.35938 3.96436 5.53518 3.96436 5.75223V12.0379C3.96436 12.255 4.14016 12.4308 4.35721 12.4308H6.71434C6.9314 12.4308 7.1072 12.255 7.1072 12.0379V5.75223C7.1072 5.53518 6.9314 5.35938 6.71434 5.35938H4.35721ZM4.75007 6.14509H6.32149V11.6451H4.75007V6.14509Z" fill="white"/>
<path fill-rule="evenodd" clip-rule="evenodd" d="M4.17746 15.7279L4.91113 16.4615C5.06434 16.6147 5.31382 16.6147 5.46701 16.4615L7.48333 14.4442C7.63655 14.291 7.63655 14.0415 7.48333 13.8883C7.33012 13.7351 7.08065 13.7351 6.92745 13.8883L5.18906 15.6277L4.73335 15.172C4.58013 15.0188 4.33066 15.0188 4.17746 15.172C4.02427 15.3252 4.02425 15.5747 4.17746 15.7279Z" fill="white"/>
<path fill-rule="evenodd" clip-rule="evenodd" d="M4.17746 19.8841L4.91113 20.6168C5.06434 20.77 5.31382 20.77 5.46701 20.6168L7.48333 18.6005C7.63655 18.4473 7.63655 18.1978 7.48333 18.0446C7.33012 17.8914 7.08065 17.8914 6.92745 18.0446L5.18906 19.783L4.73335 19.3283C4.58013 19.175 4.33066 19.175 4.17746 19.3283C4.02427 19.4815 4.02425 19.7309 4.17746 19.8841Z" fill="white"/>
</svg>
