<svg width="26" height="26" viewBox="0 0 26 26" fill="none" xmlns="http://www.w3.org/2000/svg">
<path d="M10.178 20.9867L10.8112 22.4107C10.9994 22.8345 11.3065 23.1947 11.6954 23.4475C12.0843 23.7002 12.5381 23.8347 13.0019 23.8346C13.4657 23.8347 13.9195 23.7002 14.3084 23.4475C14.6973 23.1947 15.0044 22.8345 15.1926 22.4107L15.8258 20.9867C16.0512 20.4814 16.4303 20.0601 16.9091 19.783C17.391 19.505 17.9484 19.3866 18.5016 19.4447L20.0508 19.6096C20.5119 19.6584 20.9773 19.5724 21.3905 19.3619C21.8037 19.1515 22.147 18.8256 22.3787 18.424C22.6108 18.0226 22.7213 17.5624 22.697 17.0994C22.6726 16.6364 22.5144 16.1904 22.2415 15.8156L21.3243 14.5553C20.9977 14.1032 20.8232 13.559 20.826 13.0013C20.8259 12.4451 21.002 11.9032 21.3291 11.4533L22.2463 10.1931C22.5192 9.8182 22.6774 9.37221 22.7018 8.9092C22.7261 8.44619 22.6156 7.98605 22.3836 7.58464C22.1518 7.18297 21.8086 6.85717 21.3953 6.64671C20.9821 6.43626 20.5167 6.35021 20.0556 6.39899L18.5064 6.56389C17.9532 6.62199 17.3958 6.5036 16.9139 6.22565C16.4342 5.94691 16.0549 5.52344 15.8306 5.01593L15.1926 3.59195C15.0044 3.16807 14.6973 2.80791 14.3084 2.55515C13.9195 2.30239 13.4657 2.16789 13.0019 2.16797C12.5381 2.16789 12.0843 2.30239 11.6954 2.55515C11.3065 2.80791 10.9994 3.16807 10.8112 3.59195L10.178 5.01593C9.95368 5.52344 9.57445 5.94691 9.09467 6.22565C8.61282 6.5036 8.0554 6.62199 7.50217 6.56389L5.94819 6.39899C5.48705 6.35021 5.02166 6.43626 4.60845 6.64671C4.19524 6.85717 3.85196 7.18297 3.62022 7.58464C3.3882 7.98605 3.27766 8.44619 3.30201 8.9092C3.32637 9.37221 3.48458 9.8182 3.75745 10.1931L4.67467 11.4533C5.00177 11.9032 5.17792 12.4451 5.17782 13.0013C5.17792 13.5575 5.00177 14.0994 4.67467 14.5493L3.75745 15.8095C3.48458 16.1844 3.32637 16.6304 3.30201 17.0934C3.27766 17.5564 3.3882 18.0165 3.62022 18.418C3.85218 18.8194 4.19551 19.1451 4.60866 19.3555C5.02181 19.5659 5.48708 19.6521 5.94819 19.6036L7.49736 19.4387C8.05058 19.3806 8.60801 19.499 9.08986 19.7769C9.57143 20.0549 9.95242 20.4785 10.178 20.9867Z" stroke="white" stroke-width="1.88867" stroke-linecap="round" stroke-linejoin="round"/>
<path d="M13 16.2513C14.7949 16.2513 16.25 14.7962 16.25 13.0013C16.25 11.2064 14.7949 9.7513 13 9.7513C11.205 9.7513 9.74996 11.2064 9.74996 13.0013C9.74996 14.7962 11.205 16.2513 13 16.2513Z" stroke="white" stroke-width="1.88867" stroke-linecap="round" stroke-linejoin="round"/>
</svg>
