<svg width="26" height="26" viewBox="0 0 26 26" fill="none" xmlns="http://www.w3.org/2000/svg">
<path d="M3.57071 13.9561C3.47669 13.956 3.38351 13.9381 3.29606 13.9034L1.37111 13.1414C0.987874 12.9889 0.799728 12.554 0.950386 12.1688L3.3698 6.01372C3.52117 5.62875 3.95476 5.43973 4.33842 5.59146L6.26384 6.35438C6.64732 6.50625 6.83551 6.94132 6.68424 7.3262C6.68419 7.32629 6.68414 7.32639 6.6841 7.32653L4.26515 13.4816C4.15231 13.7676 3.87714 13.9555 3.57071 13.9561ZM1.65759 12.4378L3.56504 13.1927L5.97737 7.05752L4.06991 6.30171L1.65759 12.4378Z" fill="white"/>
<path d="M18.2564 16.1322C18.173 16.1322 18.0919 16.1045 18.0257 16.0534L16.7664 15.0775C16.5973 14.9544 16.5597 14.7171 16.6823 14.5474C16.8049 14.3777 17.0414 14.3399 17.2105 14.463C17.2164 14.4672 17.2222 14.4717 17.2278 14.4763L18.4876 15.4504C18.6529 15.5786 18.6833 15.817 18.5556 15.9828C18.484 16.0758 18.3735 16.1302 18.2564 16.1303V16.1322Z" fill="white"/>
<path d="M16.5711 17.4913C16.4877 17.4913 16.4066 17.4637 16.3404 17.4126L15.222 16.5462C15.0529 16.4232 15.0152 16.1858 15.1379 16.0161C15.2605 15.8464 15.497 15.8086 15.6661 15.9317C15.672 15.936 15.6777 15.9404 15.6834 15.9451L16.8028 16.81C16.9683 16.9379 16.9992 17.1762 16.8718 17.3423C16.8002 17.4357 16.6895 17.4904 16.5721 17.4904L16.5711 17.4913Z" fill="white"/>
<path d="M14.7186 18.7304C14.635 18.7304 14.5536 18.7025 14.4875 18.6512L13.69 18.0316C13.5247 17.9033 13.4944 17.6648 13.6221 17.499C13.7499 17.3331 13.9875 17.3027 14.1528 17.4309L14.9507 18.051C15.1157 18.1795 15.1457 18.4179 15.0176 18.5836C14.946 18.6763 14.8356 18.7305 14.7186 18.7304Z" fill="white"/>
<path d="M6.91057 16.9172C6.59998 16.9175 6.29947 16.8066 6.06297 16.6046C5.5094 16.1339 5.44062 15.3019 5.90933 14.7461L6.78435 13.7151C7.25429 13.1599 8.08373 13.0921 8.63697 13.5638C9.1902 14.0354 9.2577 14.8679 8.78777 15.4232L7.91417 16.4508C7.68943 16.718 7.36755 16.8839 7.02024 16.9115C6.98384 16.9158 6.94933 16.9172 6.91057 16.9172ZM7.78842 14.0093C7.77282 14.0093 7.75722 14.0093 7.74115 14.0093C7.59413 14.0212 7.45798 14.0916 7.36297 14.2048L6.48747 15.2362C6.28898 15.4718 6.31795 15.8241 6.55224 16.0238C6.78666 16.2236 7.13809 16.1949 7.33715 15.9596C7.33725 15.9595 7.33734 15.9594 7.33744 15.9593L8.21293 14.9283C8.41162 14.6924 8.38207 14.3394 8.14698 14.14C8.04643 14.0548 7.91908 14.0079 7.78747 14.0079L7.78842 14.0093Z" fill="white"/>
<path d="M8.33845 18.1353C8.02763 18.1357 7.72684 18.025 7.4899 17.8231C6.93743 17.3518 6.86912 16.5208 7.33721 15.9651L8.2127 14.9341C8.68198 14.379 9.51081 14.3108 10.0639 14.7818C10.617 15.2528 10.6849 16.0847 10.2157 16.6398L9.34063 17.6708C9.09108 17.9663 8.72438 18.1362 8.33845 18.1353ZM7.9787 17.2442C8.2137 17.4435 8.56508 17.4145 8.76438 17.1792L9.6394 16.1482C9.83567 15.9103 9.80263 15.5576 9.56551 15.3607C9.33198 15.1666 8.98675 15.1955 8.78849 15.4257L7.91394 16.4552C7.71601 16.6909 7.74494 17.0429 7.9787 17.2428V17.2442Z" fill="white"/>
<path d="M9.76438 19.3469C9.4537 19.3472 9.15309 19.2362 8.91678 19.0338C8.36355 18.563 8.29533 17.7313 8.76432 17.1761C8.76442 17.176 8.76447 17.1759 8.76456 17.1758L9.63958 16.1448C10.1095 15.5896 10.939 15.5218 11.4922 15.9935C12.0454 16.4651 12.1129 17.2976 11.643 17.8529L10.7675 18.8843C10.543 19.1514 10.2212 19.3172 9.87405 19.3445C9.83718 19.3469 9.80078 19.3469 9.76438 19.3469ZM10.6418 16.439C10.6266 16.439 10.611 16.439 10.5945 16.439C10.4475 16.4509 10.3114 16.5213 10.2163 16.6345L9.34129 17.6654C9.1426 17.9007 9.17153 18.2531 9.40591 18.4525C9.4061 18.4527 9.40633 18.4528 9.40652 18.453C9.64067 18.6527 9.99181 18.6241 10.1908 18.3891C10.1911 18.3888 10.1914 18.3884 10.1917 18.388L11.0672 17.3571C11.2659 17.1214 11.2366 16.7688 11.0019 16.5694C10.9012 16.4839 10.7736 16.437 10.6418 16.4371V16.439Z" fill="white"/>
<path d="M11.1925 20.5581C10.8816 20.5583 10.5808 20.4473 10.344 20.245C9.79124 19.7738 9.72293 18.9423 10.1913 18.3866L11.0668 17.3556C11.5367 16.8005 12.3661 16.7328 12.9192 17.2045C13.4723 17.6761 13.5397 18.5085 13.0697 19.0636L12.1966 20.0936C11.9465 20.3895 11.5791 20.5595 11.1925 20.5581ZM10.8328 19.6666C11.0676 19.8661 11.419 19.8372 11.6185 19.6021L12.4935 18.5711C12.6924 18.3353 12.6632 17.9822 12.4283 17.7826C12.1933 17.5829 11.8415 17.6122 11.6426 17.8481L10.7671 18.8795C10.569 19.1151 10.5982 19.4671 10.8323 19.6666H10.8328Z" fill="white"/>
<path d="M13.861 20.4097C13.5449 20.4096 13.2372 20.3076 12.9832 20.1189L12.2018 19.5405C12.0338 19.416 11.9982 19.1783 12.1223 19.0097C12.1276 19.0025 12.1331 18.9955 12.1389 18.9887L12.4934 18.5712C12.6924 18.3353 12.6632 17.9823 12.4282 17.7827C12.1932 17.583 11.8415 17.6123 11.6425 17.8481C11.5074 18.0081 11.2687 18.0279 11.1093 17.8923C10.9499 17.7567 10.9302 17.5171 11.0653 17.3571C11.2643 17.1212 11.2351 16.7682 11.0001 16.5685C10.7651 16.3689 10.4133 16.3982 10.2144 16.634C10.0813 16.7955 9.84285 16.818 9.68194 16.6843C9.52102 16.5506 9.49857 16.3114 9.63178 16.1499C9.63372 16.1475 9.6357 16.1452 9.63769 16.1429C9.83661 15.907 9.80745 15.554 9.57245 15.3544C9.33746 15.1547 8.98571 15.184 8.78678 15.4198C8.66737 15.5918 8.43167 15.6341 8.26031 15.5143C8.08894 15.3944 8.04677 15.1579 8.16619 14.9859C8.17985 14.9662 8.19531 14.9479 8.21242 14.9311C8.41148 14.6953 8.38241 14.3422 8.14742 14.1424C7.91243 13.9426 7.56058 13.9718 7.36151 14.2076L6.61838 15.0806C6.49179 15.2299 6.27282 15.2579 6.11304 15.1452L5.54576 14.7443L3.73475 13.5985C3.58116 13.5011 3.51824 13.3079 3.58489 13.1382L5.88613 7.28681C5.96299 7.09191 6.18276 6.99645 6.37696 7.07364C6.37866 7.07431 6.38032 7.07502 6.38202 7.07568L7.31944 7.46948C7.54909 7.56565 7.79769 7.60754 8.04602 7.59189C8.23085 7.58074 8.41616 7.58074 8.601 7.59189L9.89627 7.66495C10.4086 7.69366 10.9135 7.80036 11.3939 7.98141L11.5187 8.02886C11.7143 8.1023 11.8136 8.32103 11.7404 8.51735C11.7203 8.5712 11.6883 8.61979 11.6468 8.6594C10.9812 9.29327 9.95584 10.1981 8.85202 10.9093C8.80286 10.9408 8.77095 10.9933 8.76551 11.0516C8.75946 11.107 8.77979 11.162 8.82035 11.2001C9.72325 12.0612 11.0209 11.2428 11.9507 10.4049C12.2814 10.1022 12.7923 10.1199 13.1014 10.4448C13.6875 11.0616 14.9511 12.0423 16.8241 11.7229C16.9224 11.7061 17.0233 11.729 17.1049 11.7865L17.3583 11.9654L17.3654 11.9706L20.0486 13.9581C20.3689 14.1966 20.5805 14.5542 20.6357 14.9506C20.6901 15.333 20.5869 15.7211 20.3497 16.0253C20.0044 16.4743 19.4283 16.6775 18.879 16.5443C18.8162 17.3371 18.1248 17.9286 17.335 17.8654C17.2887 17.8617 17.2427 17.8558 17.1971 17.8477C17.1867 18.1823 17.0605 18.5029 16.8402 18.7543C16.4488 19.1887 15.8366 19.346 15.2854 19.1538C15.1952 19.8736 14.5838 20.4125 13.861 20.4092V20.4097ZM12.9775 19.1714L13.4323 19.5082C13.7111 19.7214 14.1042 19.6942 14.3513 19.4447C14.5785 19.2062 14.6041 18.8391 14.4122 18.5712C14.2904 18.401 14.3291 18.1638 14.4987 18.0415C14.6319 17.9455 14.8115 17.9465 14.9436 18.0441L15.335 18.334C15.629 18.5517 16.0408 18.5147 16.2729 18.2505C16.4955 17.9953 16.4997 17.6153 16.2828 17.3552C16.1479 17.1951 16.1678 16.9556 16.3272 16.8202C16.4609 16.7067 16.6547 16.7001 16.7957 16.8043L17.0155 16.9671C17.2898 17.1753 17.6739 17.1536 17.9232 16.9158C18.1715 16.6646 18.19 16.2655 17.9662 15.9921C17.8327 15.8309 17.8546 15.5915 18.0153 15.4576C18.1489 15.3461 18.341 15.3403 18.481 15.4436L18.8119 15.6879C19.1093 15.9116 19.5306 15.8539 19.7574 15.5584C19.8682 15.4155 19.916 15.2333 19.8897 15.0541C19.863 14.8604 19.7598 14.6856 19.6033 14.5692L16.9238 12.5846L16.7981 12.4958C16.573 12.5273 16.346 12.5432 16.1188 12.5433C14.2803 12.5433 13.0461 11.4781 12.5587 10.9695C12.5309 10.9434 12.4877 10.9434 12.4599 10.9695C11.3201 11.9972 10.4134 12.3264 9.72089 12.3264C9.19129 12.328 8.68217 12.1212 8.30271 11.7505C8.09353 11.552 7.98759 11.2675 8.01576 10.98C8.04191 10.6885 8.20112 10.4257 8.44689 10.2683C9.26802 9.74068 10.049 9.09543 10.6574 8.54506C10.3939 8.4793 10.1248 8.43864 9.85373 8.4236L8.55845 8.35054C8.40401 8.34105 8.24915 8.34105 8.09471 8.35054C7.73005 8.37345 7.36496 8.31196 7.02776 8.17072L6.44584 7.92685L4.4046 13.1245L5.95656 14.1075L5.97216 14.118L6.26573 14.3253L6.78573 13.7137C7.25496 13.1587 8.08369 13.0906 8.63674 13.5615C8.90236 13.7877 9.06758 14.1106 9.09595 14.4591C9.09571 14.4624 9.09571 14.4658 9.09595 14.4691C9.81752 14.4036 10.4553 14.9377 10.5205 15.6619C10.5211 15.6688 10.5216 15.6758 10.5222 15.6827H10.5316C11.2549 15.6226 11.8899 16.1624 11.9498 16.8883C11.9498 16.8916 11.9498 16.895 11.9498 16.8983C12.6722 16.8331 13.3104 17.368 13.3753 18.093C13.4068 18.4448 13.2964 18.7944 13.0687 19.0637L12.9775 19.1714Z" fill="white"/>
<path d="M20.0481 14.8114C19.9673 14.8113 19.8886 14.7852 19.8236 14.7369L16.8015 12.4984C16.5746 12.5302 16.3459 12.546 16.1169 12.5459C14.279 12.5459 13.0442 11.4812 12.5568 10.9721C12.529 10.946 12.4858 10.946 12.458 10.9721C10.2324 12.9795 8.8984 12.3248 8.30135 11.7554C8.09203 11.5568 7.98609 11.2721 8.0144 10.9844C8.04055 10.693 8.19976 10.4302 8.44553 10.2728C9.80462 9.3974 11.0564 8.20225 11.6813 7.56838C12.0911 7.1539 12.6743 6.96232 13.2489 7.0536L17.2761 7.69411C17.6109 7.74716 17.9536 7.71319 18.2716 7.59543L19.6378 7.08966C19.8306 7.01821 20.0448 7.11428 20.1205 7.30601L22.3683 13.0241C22.4346 13.1928 22.3728 13.385 22.2208 13.4829L20.2524 14.7516C20.1914 14.7907 20.1205 14.8115 20.0481 14.8114ZM16.8993 11.7198C16.9801 11.7198 17.0588 11.7457 17.1239 11.7939L20.0633 13.9711L21.5505 13.0118L19.5527 7.92944L18.534 8.309C18.0943 8.47174 17.6203 8.51862 17.1574 8.44517L13.1307 7.80466C12.7969 7.75081 12.4577 7.86155 12.2193 8.10214C11.5721 8.75878 10.2745 9.99758 8.85397 10.9128C8.8048 10.9443 8.7729 10.9968 8.76746 11.0551C8.76141 11.1106 8.78173 11.1656 8.82229 11.2036C9.7252 12.0648 11.0228 11.2463 11.9527 10.4085C12.2833 10.1058 12.7943 10.1235 13.1033 10.4483C13.6909 11.0651 14.9569 12.0491 16.835 11.7251C16.8562 11.7215 16.8778 11.7197 16.8993 11.7198Z" fill="white"/>
<path d="M22.4294 13.9555C22.3272 13.9553 22.226 13.9341 22.1321 13.8933C21.9502 13.8146 21.8072 13.6661 21.735 13.481L19.3156 7.32594C19.165 6.94087 19.3531 6.50613 19.7363 6.35379L21.6613 5.59134C22.045 5.43985 22.4786 5.62878 22.6304 6.0136L25.0493 12.1682C25.2009 12.5533 25.0127 12.9887 24.629 13.1408L22.7036 13.9028C22.6164 13.9375 22.5233 13.9554 22.4294 13.9555ZM20.0228 7.05693L22.4337 13.194L24.3407 12.4386L21.9298 6.3016L20.0228 7.05693Z" fill="white"/>
</svg>
