<svg width="17" height="16" viewBox="0 0 17 16" fill="none" xmlns="http://www.w3.org/2000/svg">
<g clip-path="url(#clip0_451_1103)">
<path d="M8.41667 9.56979C8.66667 9.25313 9.03333 9.08646 9.43333 9.08646H12.3V6.90313C12.0833 6.96979 11.8333 7.00312 11.5833 7.00312C11.1667 7.00312 10.7667 6.90313 10.4 6.70312C10.0333 6.88646 9.63333 7.00312 9.21667 7.00312H9.13333C8.73333 7.00312 8.33333 6.90312 7.98333 6.71979C7.63333 6.90312 7.23333 7.00312 6.83333 7.00312H6.71667C6.31667 7.00312 5.91667 6.90312 5.56667 6.71979C5.21667 6.90312 4.83333 7.00312 4.43333 7.00312H4.35C3.93333 7.00312 3.53333 6.90312 3.16667 6.71979C2.81667 6.90312 2.4 7.00312 1.98333 7.00312C1.73333 7.00312 1.48333 6.96979 1.25 6.90313V12.4531C1.25 12.7031 1.45 12.9031 1.7 12.9031H3.38333V8.83646C3.38333 8.65312 3.53333 8.50312 3.71667 8.50312H5.73333C5.91667 8.50312 6.06667 8.65312 6.06667 8.83646V12.9031H8.61667L8.16667 10.6698C8.08333 10.2865 8.16667 9.88646 8.41667 9.56979Z" fill="black"/>
<path d="M3.16636 5.51797C3.46636 5.8513 3.88303 6.0513 4.34969 6.0513H4.43303C4.88303 6.0513 5.28303 5.8513 5.58303 5.5513C5.88303 5.86797 6.29969 6.0513 6.73303 6.0513H6.84969C7.28303 6.0513 7.69969 5.86797 7.99969 5.5513C8.28303 5.8513 8.69969 6.0513 9.14969 6.0513H9.23303C9.68303 6.0513 10.1164 5.8513 10.4164 5.51797C10.6997 5.8513 11.133 6.0513 11.5997 6.0513C12.233 6.0513 12.8164 5.66797 13.0664 5.0513C13.2164 4.66797 13.1997 4.21797 13.0497 3.83464L12.483 2.43464V1.8013C12.483 1.4513 12.1997 1.16797 11.8497 1.16797H1.74969C1.39969 1.16797 1.11636 1.4513 1.11636 1.8013V2.43464L0.549693 3.83464C0.399693 4.21797 0.36636 4.66797 0.533027 5.0513C0.783027 5.66797 1.36636 6.0513 1.99969 6.0513C2.44969 6.0513 2.86636 5.8513 3.16636 5.51797Z" fill="black"/>
<path d="M15.899 9.13281H14.9823C14.8157 9.13281 14.6657 9.24948 14.6323 9.41615L14.499 10.0495H9.44901C9.34901 10.0495 9.24901 10.0995 9.16568 10.1828C9.09901 10.2661 9.06568 10.3828 9.09901 10.4828L9.61568 12.9328C9.73235 13.4328 10.1823 13.7995 10.699 13.7995H13.499C14.0157 13.7995 14.4657 13.4328 14.5823 12.9328L15.249 9.84948H15.8823C16.0823 9.84948 16.2323 9.68281 16.2323 9.49948C16.249 9.28281 16.0823 9.13281 15.899 9.13281Z" fill="black"/>
<path d="M13.5318 15.4854C13.8816 15.4854 14.1651 15.2019 14.1651 14.8521C14.1651 14.5023 13.8816 14.2188 13.5318 14.2188C13.182 14.2188 12.8984 14.5023 12.8984 14.8521C12.8984 15.2019 13.182 15.4854 13.5318 15.4854Z" fill="black"/>
<path d="M10.6665 15.4854C11.0163 15.4854 11.2999 15.2019 11.2999 14.8521C11.2999 14.5023 11.0163 14.2188 10.6665 14.2188C10.3168 14.2188 10.0332 14.5023 10.0332 14.8521C10.0332 15.2019 10.3168 15.4854 10.6665 15.4854Z" fill="black"/>
</g>
<defs>
<clipPath id="clip0_451_1103">
<rect width="16.6667" height="16" fill="white"/>
</clipPath>
</defs>
</svg>
