<svg width="26" height="26" viewBox="0 0 26 26" fill="none" xmlns="http://www.w3.org/2000/svg">
<path d="M23.9569 17.4344L19.9519 9.07012C19.9161 8.99526 19.8599 8.93205 19.7897 8.88782C19.7194 8.84359 19.6381 8.82013 19.5552 8.82017H6.44515C6.36214 8.82011 6.28081 8.84355 6.21056 8.88779C6.14032 8.93202 6.08403 8.99524 6.04821 9.07012L2.04329 17.4344C2.01111 17.5015 1.99646 17.5756 2.00072 17.6499C2.00498 17.7241 2.028 17.7961 2.06762 17.859C2.10725 17.922 2.1622 17.9738 2.22732 18.0098C2.29244 18.0457 2.36561 18.0645 2.43999 18.0645H10.9636V20.9981H9.29088C8.83663 20.9986 8.40112 21.1792 8.07993 21.5004C7.75873 21.8216 7.57808 22.2572 7.57762 22.7114V24H18.4225V22.7114C18.422 22.2572 18.2414 21.8217 17.9202 21.5005C17.5991 21.1793 17.1636 20.9986 16.7094 20.9981H15.0367V18.0645H23.5601C23.6344 18.0643 23.7074 18.0452 23.7723 18.0092C23.8373 17.9732 23.8921 17.9214 23.9317 17.8585C23.9712 17.7957 23.9943 17.7239 23.9987 17.6497C24.0031 17.5756 23.9887 17.5015 23.9569 17.4344ZM10.6634 13.0023L10.8856 11.61L11.1904 9.7001H14.8097L15.3368 13.0023H10.6634ZM10.5229 13.8823L15.4773 13.8823L15.8637 16.3027L16.0044 17.1845H9.99592L10.5229 13.8823ZM16.8955 17.1845L16.5639 15.107L16.3684 13.8823L21.2804 13.8822L22.8616 17.1845L16.8955 17.1845ZM20.8591 13.0023H16.228L15.701 9.7001H19.278L20.8591 13.0023ZM10.2993 9.7001L10.2366 10.0931L9.77226 13.0023H5.14111L6.7223 9.7001H10.2993ZM4.71976 13.8822L9.63179 13.8823L9.10468 17.1845H3.13851L4.71976 13.8822ZM17.5425 22.7114V23.1201H8.45752V22.7114C8.45777 22.4905 8.54565 22.2786 8.70188 22.1224C8.85811 21.9662 9.06993 21.8783 9.29088 21.878H16.7094C16.9303 21.8783 17.1421 21.9662 17.2983 22.1225C17.4545 22.2787 17.5423 22.4905 17.5425 22.7114ZM14.1568 20.9981H11.8435V18.0645H14.1568V20.9981ZM22.1901 6.86508H24V7.74499H22.1901V6.86508ZM21.4775 5.14464L20.8554 4.52254L22.1352 3.24276L22.7573 3.86487L21.4775 5.14464ZM19.135 3.80997H18.2551V2H19.135L19.135 3.80997ZM15.2549 3.24276L16.5347 4.52253L15.9126 5.14463L14.6328 3.86487L15.2549 3.24276ZM21.2477 7.30444C21.2481 7.79064 21.1092 8.26677 20.8475 8.67654L20.834 8.64831C20.7009 8.37361 20.4827 8.14926 20.2118 8.00866C20.3283 7.76051 20.382 7.48754 20.3682 7.21376C20.3545 6.93997 20.2737 6.67375 20.133 6.43851C19.9922 6.20327 19.7959 6.0062 19.5611 5.86464C19.3264 5.72308 19.0604 5.64136 18.7867 5.62667C18.513 5.61197 18.2398 5.66475 17.9912 5.78036C17.7427 5.89598 17.5263 6.07088 17.3612 6.28971C17.1961 6.50853 17.0873 6.76457 17.0443 7.03531C17.0013 7.30605 17.0255 7.5832 17.1148 7.8424H16.2014C16.1259 7.4925 16.1249 7.13064 16.1984 6.78032C16.2719 6.43 16.4182 6.09906 16.628 5.80901C16.8377 5.51895 17.1061 5.27626 17.4158 5.09671C17.7255 4.91716 18.0694 4.80476 18.4253 4.76682C18.7813 4.72888 19.1412 4.76624 19.4818 4.87648C19.8223 4.98671 20.1358 5.16736 20.402 5.40669C20.6682 5.64601 20.881 5.93865 21.0267 6.2656C21.1724 6.59255 21.2477 6.9465 21.2477 7.30444Z" fill="white"/>
</svg>
