<?xml version="1.0" encoding="UTF-8"?>
<svg version="1.1" viewBox="0 0 2048 2048" width="1280" height="1280" xmlns="http://www.w3.org/2000/svg">
<path transform="translate(1018,64)" d="m0 0h12l11 4 29 16 27 15 46 25 23 13 24 13 25 14 24 13 23 13 24 13 23 13 58 32 22 12 58 32 24 13 23 13 24 13 23 13 22 12 23 13 26 14 47 26 24 13 103 57 74 41 48 26 21 12 22 12 19 11 9 9 4 9 1 4v9l-3 10-9 16-12 20-17 28-30 50-17 28-10 17-6 8-8 7-7 3-13 1-10-3-15-8-3-2v1008l-4-2-4-5-8-7-17-13-18-11-25-12-22-8-27-6-34-3-1-1-1-63v-136l-2-22-5-22-7-21-10-21-9-14-8-11-12-14-10-10-14-11-15-10-23-12-22-8-16-4-25-3-13-1-1-97v-128l1-30 1-1 68-1h31l16-2 16-5 16-8 13-10 7-7 10-14 7-15 4-14 2-14v-113l-3-25-6-24-8-20-11-21-12-17-12-14-12-12-17-13-16-10-16-8-15-6-21-6-17-3-12-1-185-1h-564l-239 1-18 2-25 6-18 7-16 8-17 10-14 11-10 9-11 11-11 14-12 19-11 23-7 21-3 12-3 26v904l-1 169-3 9-6 8-9 7-5 2-6 1h-38l-9-2-11-8-6-9-3-8-1-16v-1038l1-116-18 10-5 2-13 1-10-3-6-4-7-7-27-45-17-28-17-29-8-13-14-23-12-20-5-11-1-3v-12l4-11 7-8 13-8 26-14 18-10 23-13 26-14 23-13 24-13 23-13 28-15 23-13 24-13 23-13 24-13 36-20 22-12 170-94 26-14 23-13 29-16 24-13 27-15 85-47 22-12 23-13 26-14 23-13 26-14 23-13 26-14 23-13zm4 69-23 13-21 11-23 13-24 13-23 13-24 13-23 13-26 14-18 10-29 16-25 14-12 7-16 8-23 13-24 13-23 13-24 13-25 14-21 12-12 6-45 25-29 16-22 12-27 15-29 16-24 13-21 12-26 14-45 25-29 16-25 14-48 26-23 13-22 12-23 13-5 3 7 12 12 20 17 28 19 32 7 11h4l22-12 25-15 28-16 52-30 24-14 28-16 52-30 22-13 18-10 24-14 28-16 52-30 24-14 52-30 28-16 24-14 26-15 21-12 52-30 21-12 24-14 104-60 29-17 23-13 9-3h12l11 4 28 16 48 28 28 16 52 30 24 14 28 16 24 14 26 15 23 13 26 15 24 14 130 75 24 14 26 15 49 28 24 14 26 15 24 14 23 13 24 14 78 45 19 11 24 14 3-1 60-100 1-4-19-10-21-12-26-14-16-9-24-13-23-13-27-15-24-13-47-26-56-31-24-13-18-10-22-12-27-15-25-14-29-16-24-13-52-29-26-14-16-9-27-15-26-14-23-13-29-16-24-13-23-13-24-13-74-41-24-13-23-13-28-15-9-6zm-62 347v128h127l1-1v-127z" fill="#020202"/>
<path transform="translate(945,765)" d="m0 0 2 1-1 2 110-1 4-2v3l108-1 4-2v3l109-1 3-1 1 1h114l82 1 17 2 15 4 15 6 15 9 13 10 16 16 10 15 8 16 5 13 4 19 1 13v104l-2 9-5 8-8 8-8 3-10 1h-159v384h71l18 2 19 5 16 7 16 10 11 10 6 5 9 11 7 10 8 16 5 12 4 15 2 23v258h78l20 3 21 6 16 7 16 9 12 9 14 12 10 11 10 13 11 19 8 20 6 23 2 16v16l-3 10-6 8-7 6-8 3-9 1h-1378l-9-2-9-6-7-7-4-10-1-69v-941l1-67 3-16 7-21 7-14 8-12 12-14 11-10 13-9 15-8 21-7 16-3 107-1 3-1 2 1h108l3-1 1 1h108l4-1 1 1h111zm-443 67-12 3-12 6-10 8-9 10-8 16-3 13v1032h133l3-1 1 1h392l-2-6-7-16-5-18-4-24-97-1-12-3-6-4-7-8-4-10v-13l4-10 6-7 8-5 7-2 99-1 3-1v-63l-70-1-10-4-8-7-5-8-2-6v-12l4-11 6-7 8-5 7-2 57-1 12-1 1-41v-81l1-18 4-20 4-12 8-17v-3h-115l-10-2-8-5-7-8-4-9v-14l4-10 5-6 10-6 6-2 121-1 4-2v2h110l3-1 1 1h246l1-1v-513l2-18 4-17 5-14 5-10v-3zm576 640-14 4-13 7-12 11-7 10-5 10-3 14v337l4 15 7 13 10 11 10 7 16 7 11 2h63l3-1 1 1h108 4 110l2-1 1 1h162v-385l-2-16-5-13-9-13-7-7-11-7-12-5-10-2z" fill="#020202"/>
<path transform="translate(794,1216)" d="m0 0h11l10 3 9 7 6 10 2 7v10l-4 11-8 10-5 5-7 6-6 7-6 5-2 3h-2l-2 4-21 21-1 184-3 9-4 6-9 8-8 3-5 1h-198l-9-2-8-5-8-9-4-9-1-96v-103l2-10 6-10 9-8 9-4 11-1h174l8-7 49-49 8-5zm-173 127v3l15 14 4 3 17-17v-2zm82 47-8 7-1 3-4 2v2l-4 2v2l-4 2v2l-4 2v2l-3 1-5 6-4 3v2l-4 2-8 6-5 2-12 1-9-2-10-6-23-23-8-7-10-10h-1v81h127l1-5v-77z" fill="#020202"/>
<path transform="translate(798,896)" d="m0 0 13 2 9 5 7 8 4 10v14l-4 11-16 17-29 29h-2l-2 4-9 8-1 183-2 9-5 8-4 5-12 6-7 1h-198l-8-2-9-6-7-8-4-8-1-116 1-91 4-10 7-8 7-5 6-2 186-1 8-7 49-49 9-5zm-177 127v3l15 14 4 3 17-17v-2zm82 47-3 2v2l-4 2-2 4-4 2v2l-3 1-5 5v2h-2l-7 8-7 7-10 8-7 3-12 1-9-2-8-5-10-9-14-14-8-7-11-11h-1v81h127l1-1v-81z" fill="#020202"/>
<path transform="translate(538,1600)" d="m0 0h202l8 2 8 5 7 7 4 9 1 5v200l-3 10-4 6-9 8-7 3-6 1h-200l-9-3-8-6-6-7-4-10-1-61v-131l1-13 6-12 7-7 9-5zm39 63-1 1v128h127l1-1v-127z" fill="#020202"/>
<path transform="translate(944,991)" d="m0 0h117l96 1 9 3 6 4 7 7 4 9 1 4v11l-4 10-9 10-7 4-13 2h-289l-10-2-8-5-7-7-5-12v-12l4-11 6-7 9-6 8-2z" fill="#020202"/>
<path transform="translate(995,1279)" d="m0 0h121l13 2 10 5 8 8 4 9 1 4v11l-4 10-7 8-5 4-8 3-6 1h-198l-10-3-6-4-7-7-5-12v-12l4-11 7-8 11-6 4-1z" fill="#020202"/>
<path transform="translate(931,1119)" d="m0 0 97 1 10 3 6 4 8 9 4 11v10l-3 9-4 6-7 7-9 4-8 1h-165l-10-3-6-4-7-7-4-8-1-4v-12l4-11 7-8 8-5 8-2z" fill="#020202"/>
<path transform="translate(1272,1632)" d="m0 0h17l13 3 15 8 11 10 9 13 5 12 2 12v9l-2 14-4 12-7 10-8 9-13 9-9 4-17 3h-9l-16-3-14-7-10-8-7-8-6-10-4-10-2-9v-17l4-17 6-10 7-9 10-9 8-5 10-4z" fill="#020202"/>
<path transform="translate(1831,1267)" d="m0 0 4 2 21 21h-3l-20-20z" fill="#FCFCFC"/>
<path transform="translate(1829,1377)" d="m0 0 7 6 15 15h-3l-19-19z" fill="#FCFCFC"/>
<path transform="translate(1849,1218)" d="m0 0v3l-17 17v-3l13-13z" fill="#FCFCFC"/>
<path transform="translate(378,1107)" d="m0 0v3l-16 16v-3z" fill="#FCFCFC"/>
<path transform="translate(1849,1331)" d="m0 0 2 1-17 17v-3z" fill="#FCFCFC"/>
<path transform="translate(215,1270)" d="m0 0 2 1-10 10-6 7v-3l11-12z" fill="#FCFCFC"/>
<path transform="translate(211,1613)" d="m0 0 2 1-9 10-5 4 2-4 5-6z" fill="#FCFCFC"/>
<path transform="translate(323,1451)" d="m0 0 7 6 8 8h-3l-12-12z" fill="#FCFCFC"/>
<path transform="translate(211,1500)" d="m0 0v3l-7 8-4 3 2-4z" fill="#FCFCFC"/>
<path transform="translate(374,1450)" d="m0 0v3l-11 11v-3z" fill="#FCFCFC"/>
<path transform="translate(371,1340)" d="m0 0 2 1-11 12v-3z" fill="#FCFCFC"/>
<path transform="translate(339,1486)" d="m0 0 2 1-11 11v-3z" fill="#FCFCFC"/>
<path transform="translate(361,1489)" d="m0 0 7 6 4 4-1 2-10-10z" fill="#FCFCFC"/>
<path transform="translate(327,1343)" d="m0 0 4 2 8 8h-3l-9-9z" fill="#FCFCFC"/>
<path transform="translate(326,1116)" d="m0 0 4 2 8 8h-3l-9-9z" fill="#FCFCFC"/>
<path transform="translate(361,1377)" d="m0 0 4 2 7 7-1 2-10-10z" fill="#FCFCFC"/>
<path transform="translate(326,1568)" d="m0 0 4 2 7 7h-3l-8-8z" fill="#FCFCFC"/>
<path transform="translate(1334,1167)" d="m0 0 2 1-9 9-2-1z" fill="#FCFCFC"/>
<path transform="translate(328,1231)" d="m0 0 4 2 6 7-4-2z" fill="#FCFCFC"/>
<path transform="translate(338,1148)" d="m0 0 2 1-8 8v-3z" fill="#FCFCFC"/>
<path transform="translate(213,1385)" d="m0 0v3l-7 6 2-4z" fill="#FCFCFC"/>
<path transform="translate(336,1376)" d="m0 0 2 1-4 5-4 2 2-4z" fill="#FCFCFC"/>
<path transform="translate(1834,1495)" d="m0 0 7 6 1 2-4-2-4-4z" fill="#FCFCFC"/>
<path transform="translate(205,1394)" d="m0 0v3l-5 4 2-4z" fill="#FCFCFC"/>
<path transform="translate(208,1336)" d="m0 0 6 5-1 2-5-5z" fill="#FCFCFC"/>
<path transform="translate(335,1264)" d="m0 0 2 1-6 5 2-4z" fill="#FCFCFC"/>
<path transform="translate(198,1439)" d="m0 0 5 3-1 2-4-3z" fill="#FCFCFC"/>
<path transform="translate(203,1444)" d="m0 0 4 2-1 2-3-2z" fill="#FCFCFC"/>
<path transform="translate(211,1452)" d="m0 0 3 2-1 2z" fill="#FCFCFC"/>
<path transform="translate(1852,1215)" d="m0 0v3h-2v-2z" fill="#FCFCFC"/>
<path transform="translate(1463,1914)" d="m0 0 3 1-1 2z" fill="#FCFCFC"/>
<path transform="translate(1263,1914)" d="m0 0 2 1-3 2z" fill="#FCFCFC"/>
<path transform="translate(1846,1507)" d="m0 0 3 3-3-1z" fill="#FCFCFC"/>
<path transform="translate(1842,1503)" d="m0 0 3 3-3-1z" fill="#FCFCFC"/>
<path transform="translate(340,1129)" d="m0 0 3 1-1 2z" fill="#FCFCFC"/>
<path transform="translate(768,718)" d="m0 0 2 1-3 2z" fill="#FCFCFC"/>
<path transform="translate(772,714)" d="m0 0 2 1-3 2z" fill="#FCFCFC"/>
<path transform="translate(324,1565)" d="m0 0 2 1-1 2z" fill="#FCFCFC"/>
<path transform="translate(328,1498)" d="m0 0v3z" fill="#FCFCFC"/>
<path transform="translate(338,1466)" d="m0 0 3 1h-3z" fill="#FCFCFC"/>
<path transform="translate(218,1461)" d="m0 0 2 1-1 2z" fill="#FCFCFC"/>
<path transform="translate(215,1457)" d="m0 0 2 1-1 2z" fill="#FCFCFC"/>
<path transform="translate(375,1391)" d="m0 0 2 1-1 2z" fill="#FCFCFC"/>
<path transform="translate(218,1348)" d="m0 0 2 1-1 2z" fill="#FCFCFC"/>
<path transform="translate(215,1344)" d="m0 0 2 1-1 2z" fill="#FCFCFC"/>
<path transform="translate(216,1232)" d="m0 0 2 1-1 2z" fill="#FCFCFC"/>
<path transform="translate(328,1159)" d="m0 0v3z" fill="#FCFCFC"/>
<path transform="translate(324,1113)" d="m0 0 2 1-1 2z" fill="#FCFCFC"/>
<path transform="translate(204,993)" d="m0 0 3 1h-3z" fill="#FCFCFC"/>
<path transform="translate(1831,1492)" d="m0 0 2 2h-2z" fill="#FCFCFC"/>
<path transform="translate(220,1491)" d="m0 0 1 2-2-1z" fill="#FCFCFC"/>
<path transform="translate(208,1449)" d="m0 0h2l-1 2z" fill="#FCFCFC"/>
<path transform="translate(328,1385)" d="m0 0 1 2-2-1z" fill="#FCFCFC"/>
<path transform="translate(338,1374)" d="m0 0 2 1-2 1z" fill="#FCFCFC"/>
<path transform="translate(323,1339)" d="m0 0h2l-1 2z" fill="#FCFCFC"/>
<path transform="translate(204,1332)" d="m0 0 2 2h-2z" fill="#FCFCFC"/>
<path transform="translate(380,1331)" d="m0 0 1 2-2-1z" fill="#FCFCFC"/>
<path transform="translate(200,1328)" d="m0 0 2 2h-2z" fill="#FCFCFC"/>
<path transform="translate(196,1324)" d="m0 0 2 2h-2z" fill="#FCFCFC"/>
<path transform="translate(327,1273)" d="m0 0 2 1-2 1z" fill="#FCFCFC"/>
<path transform="translate(367,1231)" d="m0 0 1 2-2-1z" fill="#FCFCFC"/>
<path transform="translate(378,1220)" d="m0 0 1 2-2-1z" fill="#FCFCFC"/>
<path transform="translate(343,1143)" d="m0 0 1 2-2-1z" fill="#FCFCFC"/>
<path transform="translate(1841,1112)" d="m0 0 2 1-2 1z" fill="#FCFCFC"/>
<path transform="translate(1845,1108)" d="m0 0 2 1-2 1z" fill="#FCFCFC"/>
<path transform="translate(1849,1104)" d="m0 0 2 1-2 1z" fill="#FCFCFC"/>
<path transform="translate(208,997)" d="m0 0h2l-1 2z" fill="#FCFCFC"/>
<path transform="translate(947,763)" d="m0 0 2 1-2 1z" fill="#FCFCFC"/>
<path transform="translate(219,1800)" d="m0 0" fill="#FCFCFC"/>
<path transform="translate(216,1796)" d="m0 0" fill="#FCFCFC"/>
<path transform="translate(373,1676)" d="m0 0 2 1z" fill="#FCFCFC"/>
<path transform="translate(197,1628)" d="m0 0 2 1z" fill="#FCFCFC"/>
<path transform="translate(214,1610)" d="m0 0" fill="#FCFCFC"/>
<path transform="translate(369,1568)" d="m0 0" fill="#FCFCFC"/>
<path transform="translate(370,1566)" d="m0 0" fill="#FCFCFC"/>
<path transform="translate(379,1509)" d="m0 0" fill="#FCFCFC"/>
<path transform="translate(376,1505)" d="m0 0" fill="#FCFCFC"/>
<path transform="translate(342,1469)" d="m0 0" fill="#FCFCFC"/>
<path transform="translate(1322,1402)" d="m0 0 2 1z" fill="#FCFCFC"/>
<path transform="translate(379,1396)" d="m0 0" fill="#FCFCFC"/>
<path transform="translate(326,1387)" d="m0 0" fill="#FCFCFC"/>
<path transform="translate(376,1279)" d="m0 0" fill="#FCFCFC"/>
<path transform="translate(329,1271)" d="m0 0" fill="#FCFCFC"/>
<path transform="translate(340,1242)" d="m0 0 2 1z" fill="#FCFCFC"/>
<path transform="translate(219,1236)" d="m0 0" fill="#FCFCFC"/>
<path transform="translate(379,1170)" d="m0 0" fill="#FCFCFC"/>
<path transform="translate(1449,1166)" d="m0 0" fill="#FCFCFC"/>
<path transform="translate(216,1119)" d="m0 0" fill="#FCFCFC"/>
<path transform="translate(219,1010)" d="m0 0" fill="#FCFCFC"/>
<path transform="translate(215 1e3)" d="m0 0" fill="#FCFCFC"/>
<path transform="translate(1486,1917)" d="m0 0" fill="#FCFCFC"/>
<path transform="translate(1261,1917)" d="m0 0" fill="#FCFCFC"/>
<path transform="translate(1148,1917)" d="m0 0" fill="#FCFCFC"/>
<path transform="translate(584,1917)" d="m0 0" fill="#FCFCFC"/>
<path transform="translate(1487,1916)" d="m0 0" fill="#FCFCFC"/>
<path transform="translate(1375,1916)" d="m0 0" fill="#FCFCFC"/>
<path transform="translate(1149,1916)" d="m0 0" fill="#FCFCFC"/>
<path transform="translate(585,1916)" d="m0 0" fill="#FCFCFC"/>
<path transform="translate(220,1916)" d="m0 0" fill="#FCFCFC"/>
<path transform="translate(1150,1915)" d="m0 0" fill="#FCFCFC"/>
<path transform="translate(586,1915)" d="m0 0" fill="#FCFCFC"/>
<path transform="translate(1377,1914)" d="m0 0" fill="#FCFCFC"/>
<path transform="translate(1151,1914)" d="m0 0" fill="#FCFCFC"/>
<path transform="translate(587,1914)" d="m0 0" fill="#FCFCFC"/>
<path transform="translate(1462,1913)" d="m0 0" fill="#FCFCFC"/>
<path transform="translate(1461,1912)" d="m0 0" fill="#FCFCFC"/>
<path transform="translate(323,1842)" d="m0 0" fill="#FCFCFC"/>
<path transform="translate(324,1841)" d="m0 0" fill="#FCFCFC"/>
<path transform="translate(220,1802)" d="m0 0" fill="#FCFCFC"/>
<path transform="translate(217,1798)" d="m0 0" fill="#FCFCFC"/>
<path transform="translate(215,1795)" d="m0 0" fill="#FCFCFC"/>
<path transform="translate(369,1793)" d="m0 0" fill="#FCFCFC"/>
<path transform="translate(370,1792)" d="m0 0" fill="#FCFCFC"/>
<path transform="translate(371,1791)" d="m0 0" fill="#FCFCFC"/>
<path transform="translate(372,1790)" d="m0 0" fill="#FCFCFC"/>
<path transform="translate(373,1789)" d="m0 0" fill="#FCFCFC"/>
<path transform="translate(374,1788)" d="m0 0" fill="#FCFCFC"/>
<path transform="translate(375,1787)" d="m0 0" fill="#FCFCFC"/>
<path transform="translate(376,1786)" d="m0 0" fill="#FCFCFC"/>
<path transform="translate(377,1785)" d="m0 0" fill="#FCFCFC"/>
<path transform="translate(378,1784)" d="m0 0" fill="#FCFCFC"/>
<path transform="translate(380,1782)" d="m0 0" fill="#FCFCFC"/>
<path transform="translate(381,1781)" d="m0 0" fill="#FCFCFC"/>
<path transform="translate(508,1768)" d="m0 0" fill="#FCFCFC"/>
<path transform="translate(323,1730)" d="m0 0" fill="#FCFCFC"/>
<path transform="translate(324,1729)" d="m0 0" fill="#FCFCFC"/>
<path transform="translate(220,1716)" d="m0 0" fill="#FCFCFC"/>
<path transform="translate(221,1715)" d="m0 0" fill="#FCFCFC"/>
<path transform="translate(455,1695)" d="m0 0" fill="#FCFCFC"/>
<path transform="translate(369,1680)" d="m0 0" fill="#FCFCFC"/>
<path transform="translate(370,1679)" d="m0 0" fill="#FCFCFC"/>
<path transform="translate(371,1678)" d="m0 0" fill="#FCFCFC"/>
<path transform="translate(375,1675)" d="m0 0" fill="#FCFCFC"/>
<path transform="translate(1659,1661)" d="m0 0" fill="#FCFCFC"/>
<path transform="translate(380,1624)" d="m0 0" fill="#FCFCFC"/>
<path transform="translate(379,1622)" d="m0 0" fill="#FCFCFC"/>
<path transform="translate(378,1621)" d="m0 0" fill="#FCFCFC"/>
<path transform="translate(377,1620)" d="m0 0" fill="#FCFCFC"/>
<path transform="translate(376,1619)" d="m0 0" fill="#FCFCFC"/>
<path transform="translate(371,1612)" d="m0 0" fill="#FCFCFC"/>
<path transform="translate(213,1612)" d="m0 0" fill="#FCFCFC"/>
<path transform="translate(370,1611)" d="m0 0" fill="#FCFCFC"/>
<path transform="translate(369,1610)" d="m0 0" fill="#FCFCFC"/>
<path transform="translate(1835,1609)" d="m0 0" fill="#FCFCFC"/>
<path transform="translate(368,1609)" d="m0 0" fill="#FCFCFC"/>
<path transform="translate(1834,1608)" d="m0 0" fill="#FCFCFC"/>
<path transform="translate(367,1608)" d="m0 0" fill="#FCFCFC"/>
<path transform="translate(1832,1606)" d="m0 0" fill="#FCFCFC"/>
<path transform="translate(365,1606)" d="m0 0" fill="#FCFCFC"/>
<path transform="translate(218,1606)" d="m0 0" fill="#FCFCFC"/>
<path transform="translate(1831,1605)" d="m0 0" fill="#FCFCFC"/>
<path transform="translate(219,1605)" d="m0 0" fill="#FCFCFC"/>
<path transform="translate(220,1604)" d="m0 0" fill="#FCFCFC"/>
<path transform="translate(221,1603)" d="m0 0" fill="#FCFCFC"/>
<path transform="translate(342,1583)" d="m0 0" fill="#FCFCFC"/>
<path transform="translate(341,1582)" d="m0 0" fill="#FCFCFC"/>
<path transform="translate(339,1580)" d="m0 0" fill="#FCFCFC"/>
<path transform="translate(338,1579)" d="m0 0" fill="#FCFCFC"/>
<path transform="translate(337,1578)" d="m0 0" fill="#FCFCFC"/>
<path transform="translate(220,1577)" d="m0 0" fill="#FCFCFC"/>
<path transform="translate(366,1570)" d="m0 0" fill="#FCFCFC"/>
<path transform="translate(373,1564)" d="m0 0" fill="#FCFCFC"/>
<path transform="translate(323,1564)" d="m0 0" fill="#FCFCFC"/>
<path transform="translate(322,1563)" d="m0 0" fill="#FCFCFC"/>
<path transform="translate(378,1558)" d="m0 0" fill="#FCFCFC"/>
<path transform="translate(379,1557)" d="m0 0" fill="#FCFCFC"/>
<path transform="translate(380,1556)" d="m0 0" fill="#FCFCFC"/>
<path transform="translate(1855,1516)" d="m0 0" fill="#FCFCFC"/>
<path transform="translate(197,1516)" d="m0 0" fill="#FCFCFC"/>
<path transform="translate(198,1515)" d="m0 0" fill="#FCFCFC"/>
<path transform="translate(1853,1514)" d="m0 0" fill="#FCFCFC"/>
<path transform="translate(1852,1513)" d="m0 0" fill="#FCFCFC"/>
<path transform="translate(1851,1512)" d="m0 0" fill="#FCFCFC"/>
<path transform="translate(1850,1511)" d="m0 0" fill="#FCFCFC"/>
<path transform="translate(380,1511)" d="m0 0" fill="#FCFCFC"/>
<path transform="translate(1849,1510)" d="m0 0" fill="#FCFCFC"/>
<path transform="translate(378,1508)" d="m0 0" fill="#FCFCFC"/>
<path transform="translate(377,1507)" d="m0 0" fill="#FCFCFC"/>
<path transform="translate(1845,1506)" d="m0 0" fill="#FCFCFC"/>
<path transform="translate(375,1504)" d="m0 0" fill="#FCFCFC"/>
<path transform="translate(323,1504)" d="m0 0" fill="#FCFCFC"/>
<path transform="translate(374,1503)" d="m0 0" fill="#FCFCFC"/>
<path transform="translate(324,1503)" d="m0 0" fill="#FCFCFC"/>
<path transform="translate(373,1502)" d="m0 0" fill="#FCFCFC"/>
<path transform="translate(325,1502)" d="m0 0" fill="#FCFCFC"/>
<path transform="translate(372,1501)" d="m0 0" fill="#FCFCFC"/>
<path transform="translate(326,1501)" d="m0 0" fill="#FCFCFC"/>
<path transform="translate(212,1499)" d="m0 0" fill="#FCFCFC"/>
<path transform="translate(213,1498)" d="m0 0" fill="#FCFCFC"/>
<path transform="translate(214,1497)" d="m0 0" fill="#FCFCFC"/>
<path transform="translate(215,1496)" d="m0 0" fill="#FCFCFC"/>
<path transform="translate(216,1495)" d="m0 0" fill="#FCFCFC"/>
<path transform="translate(1833,1494)" d="m0 0" fill="#FCFCFC"/>
<path transform="translate(217,1494)" d="m0 0" fill="#FCFCFC"/>
<path transform="translate(218,1493)" d="m0 0" fill="#FCFCFC"/>
<path transform="translate(1830,1491)" d="m0 0" fill="#FCFCFC"/>
<path transform="translate(1829,1490)" d="m0 0" fill="#FCFCFC"/>
<path transform="translate(221,1490)" d="m0 0" fill="#FCFCFC"/>
<path transform="translate(1828,1489)" d="m0 0" fill="#FCFCFC"/>
<path transform="translate(353,1472)" d="m0 0" fill="#FCFCFC"/>
<path transform="translate(354,1471)" d="m0 0" fill="#FCFCFC"/>
<path transform="translate(343,1471)" d="m0 0" fill="#FCFCFC"/>
<path transform="translate(355,1470)" d="m0 0" fill="#FCFCFC"/>
<path transform="translate(357,1468)" d="m0 0" fill="#FCFCFC"/>
<path transform="translate(341,1468)" d="m0 0" fill="#FCFCFC"/>
<path transform="translate(221,1465)" d="m0 0" fill="#FCFCFC"/>
<path transform="translate(361,1464)" d="m0 0" fill="#FCFCFC"/>
<path transform="translate(220,1464)" d="m0 0" fill="#FCFCFC"/>
<path transform="translate(217,1460)" d="m0 0" fill="#FCFCFC"/>
<path transform="translate(214,1456)" d="m0 0" fill="#FCFCFC"/>
<path transform="translate(210,1451)" d="m0 0" fill="#FCFCFC"/>
<path transform="translate(375,1449)" d="m0 0" fill="#FCFCFC"/>
<path transform="translate(1845,1448)" d="m0 0" fill="#FCFCFC"/>
<path transform="translate(376,1448)" d="m0 0" fill="#FCFCFC"/>
<path transform="translate(207,1448)" d="m0 0" fill="#FCFCFC"/>
<path transform="translate(377,1447)" d="m0 0" fill="#FCFCFC"/>
<path transform="translate(378,1446)" d="m0 0" fill="#FCFCFC"/>
<path transform="translate(379,1445)" d="m0 0" fill="#FCFCFC"/>
<path transform="translate(380,1444)" d="m0 0" fill="#FCFCFC"/>
<path transform="translate(381,1443)" d="m0 0" fill="#FCFCFC"/>
<path transform="translate(197,1438)" d="m0 0" fill="#FCFCFC"/>
<path transform="translate(196,1437)" d="m0 0" fill="#FCFCFC"/>
<path transform="translate(195,1436)" d="m0 0" fill="#FCFCFC"/>
<path transform="translate(194,1435)" d="m0 0" fill="#FCFCFC"/>
<path transform="translate(193,1434)" d="m0 0" fill="#FCFCFC"/>
<path transform="translate(1209,1405)" d="m0 0" fill="#FCFCFC"/>
<path transform="translate(1096,1405)" d="m0 0" fill="#FCFCFC"/>
<path transform="translate(983,1405)" d="m0 0" fill="#FCFCFC"/>
<path transform="translate(1097,1404)" d="m0 0" fill="#FCFCFC"/>
<path transform="translate(1854,1402)" d="m0 0" fill="#FCFCFC"/>
<path transform="translate(1853,1401)" d="m0 0" fill="#FCFCFC"/>
<path transform="translate(199,1401)" d="m0 0" fill="#FCFCFC"/>
<path transform="translate(1852,1400)" d="m0 0" fill="#FCFCFC"/>
<path transform="translate(1325,1400)" d="m0 0" fill="#FCFCFC"/>
<path transform="translate(1851,1399)" d="m0 0" fill="#FCFCFC"/>
<path transform="translate(1326,1399)" d="m0 0" fill="#FCFCFC"/>
<path transform="translate(380,1398)" d="m0 0" fill="#FCFCFC"/>
<path transform="translate(377,1394)" d="m0 0" fill="#FCFCFC"/>
<path transform="translate(323,1391)" d="m0 0" fill="#FCFCFC"/>
<path transform="translate(374,1390)" d="m0 0" fill="#FCFCFC"/>
<path transform="translate(324,1390)" d="m0 0" fill="#FCFCFC"/>
<path transform="translate(373,1389)" d="m0 0" fill="#FCFCFC"/>
<path transform="translate(325,1389)" d="m0 0" fill="#FCFCFC"/>
<path transform="translate(372,1388)" d="m0 0" fill="#FCFCFC"/>
<path transform="translate(329,1384)" d="m0 0" fill="#FCFCFC"/>
<path transform="translate(214,1384)" d="m0 0" fill="#FCFCFC"/>
<path transform="translate(215,1383)" d="m0 0" fill="#FCFCFC"/>
<path transform="translate(216,1382)" d="m0 0" fill="#FCFCFC"/>
<path transform="translate(217,1381)" d="m0 0" fill="#FCFCFC"/>
<path transform="translate(220,1378)" d="m0 0" fill="#FCFCFC"/>
<path transform="translate(221,1377)" d="m0 0" fill="#FCFCFC"/>
<path transform="translate(1828,1376)" d="m0 0" fill="#FCFCFC"/>
<path transform="translate(360,1376)" d="m0 0" fill="#FCFCFC"/>
<path transform="translate(1827,1375)" d="m0 0" fill="#FCFCFC"/>
<path transform="translate(359,1375)" d="m0 0" fill="#FCFCFC"/>
<path transform="translate(358,1374)" d="m0 0" fill="#FCFCFC"/>
<path transform="translate(357,1373)" d="m0 0" fill="#FCFCFC"/>
<path transform="translate(356,1372)" d="m0 0" fill="#FCFCFC"/>
<path transform="translate(344,1368)" d="m0 0" fill="#FCFCFC"/>
<path transform="translate(349,1363)" d="m0 0" fill="#FCFCFC"/>
<path transform="translate(345,1360)" d="m0 0" fill="#FCFCFC"/>
<path transform="translate(344,1359)" d="m0 0" fill="#FCFCFC"/>
<path transform="translate(343,1358)" d="m0 0" fill="#FCFCFC"/>
<path transform="translate(356,1357)" d="m0 0" fill="#FCFCFC"/>
<path transform="translate(342,1357)" d="m0 0" fill="#FCFCFC"/>
<path transform="translate(357,1356)" d="m0 0" fill="#FCFCFC"/>
<path transform="translate(341,1356)" d="m0 0" fill="#FCFCFC"/>
<path transform="translate(358,1355)" d="m0 0" fill="#FCFCFC"/>
<path transform="translate(340,1355)" d="m0 0" fill="#FCFCFC"/>
<path transform="translate(339,1354)" d="m0 0" fill="#FCFCFC"/>
<path transform="translate(360,1353)" d="m0 0" fill="#FCFCFC"/>
<path transform="translate(220,1351)" d="m0 0" fill="#FCFCFC"/>
<path transform="translate(217,1347)" d="m0 0" fill="#FCFCFC"/>
<path transform="translate(214,1343)" d="m0 0" fill="#FCFCFC"/>
<path transform="translate(326,1342)" d="m0 0" fill="#FCFCFC"/>
<path transform="translate(325,1341)" d="m0 0" fill="#FCFCFC"/>
<path transform="translate(373,1338)" d="m0 0" fill="#FCFCFC"/>
<path transform="translate(374,1337)" d="m0 0" fill="#FCFCFC"/>
<path transform="translate(375,1336)" d="m0 0" fill="#FCFCFC"/>
<path transform="translate(376,1335)" d="m0 0" fill="#FCFCFC"/>
<path transform="translate(207,1335)" d="m0 0" fill="#FCFCFC"/>
<path transform="translate(377,1334)" d="m0 0" fill="#FCFCFC"/>
<path transform="translate(206,1334)" d="m0 0" fill="#FCFCFC"/>
<path transform="translate(378,1333)" d="m0 0" fill="#FCFCFC"/>
<path transform="translate(203,1331)" d="m0 0" fill="#FCFCFC"/>
<path transform="translate(381,1330)" d="m0 0" fill="#FCFCFC"/>
<path transform="translate(202,1330)" d="m0 0" fill="#FCFCFC"/>
<path transform="translate(199,1327)" d="m0 0" fill="#FCFCFC"/>
<path transform="translate(198,1326)" d="m0 0" fill="#FCFCFC"/>
<path transform="translate(195,1323)" d="m0 0" fill="#FCFCFC"/>
<path transform="translate(194,1322)" d="m0 0" fill="#FCFCFC"/>
<path transform="translate(193,1321)" d="m0 0" fill="#FCFCFC"/>
<path transform="translate(1859,1294)" d="m0 0" fill="#FCFCFC"/>
<path transform="translate(1858,1293)" d="m0 0" fill="#FCFCFC"/>
<path transform="translate(1857,1292)" d="m0 0" fill="#FCFCFC"/>
<path transform="translate(1856,1291)" d="m0 0" fill="#FCFCFC"/>
<path transform="translate(199,1288)" d="m0 0" fill="#FCFCFC"/>
<path transform="translate(380,1285)" d="m0 0" fill="#FCFCFC"/>
<path transform="translate(379,1284)" d="m0 0" fill="#FCFCFC"/>
<path transform="translate(377,1281)" d="m0 0" fill="#FCFCFC"/>
<path transform="translate(375,1278)" d="m0 0" fill="#FCFCFC"/>
<path transform="translate(323,1278)" d="m0 0" fill="#FCFCFC"/>
<path transform="translate(324,1277)" d="m0 0" fill="#FCFCFC"/>
<path transform="translate(325,1276)" d="m0 0" fill="#FCFCFC"/>
<path transform="translate(326,1275)" d="m0 0" fill="#FCFCFC"/>
<path transform="translate(371,1273)" d="m0 0" fill="#FCFCFC"/>
<path transform="translate(370,1272)" d="m0 0" fill="#FCFCFC"/>
<path transform="translate(368,1270)" d="m0 0" fill="#FCFCFC"/>
<path transform="translate(330,1270)" d="m0 0" fill="#FCFCFC"/>
<path transform="translate(367,1269)" d="m0 0" fill="#FCFCFC"/>
<path transform="translate(217,1269)" d="m0 0" fill="#FCFCFC"/>
<path transform="translate(1830,1266)" d="m0 0" fill="#FCFCFC"/>
<path transform="translate(219,1266)" d="m0 0" fill="#FCFCFC"/>
<path transform="translate(1829,1265)" d="m0 0" fill="#FCFCFC"/>
<path transform="translate(1828,1264)" d="m0 0" fill="#FCFCFC"/>
<path transform="translate(1827,1263)" d="m0 0" fill="#FCFCFC"/>
<path transform="translate(337,1262)" d="m0 0" fill="#FCFCFC"/>
<path transform="translate(343,1245)" d="m0 0" fill="#FCFCFC"/>
<path transform="translate(342,1243)" d="m0 0" fill="#FCFCFC"/>
<path transform="translate(339,1241)" d="m0 0" fill="#FCFCFC"/>
<path transform="translate(338,1240)" d="m0 0" fill="#FCFCFC"/>
<path transform="translate(1829,1239)" d="m0 0" fill="#FCFCFC"/>
<path transform="translate(1830,1238)" d="m0 0" fill="#FCFCFC"/>
<path transform="translate(220,1238)" d="m0 0" fill="#FCFCFC"/>
<path transform="translate(215,1231)" d="m0 0" fill="#FCFCFC"/>
<path transform="translate(368,1230)" d="m0 0" fill="#FCFCFC"/>
<path transform="translate(327,1230)" d="m0 0" fill="#FCFCFC"/>
<path transform="translate(214,1230)" d="m0 0" fill="#FCFCFC"/>
<path transform="translate(369,1229)" d="m0 0" fill="#FCFCFC"/>
<path transform="translate(326,1229)" d="m0 0" fill="#FCFCFC"/>
<path transform="translate(213,1229)" d="m0 0" fill="#FCFCFC"/>
<path transform="translate(370,1228)" d="m0 0" fill="#FCFCFC"/>
<path transform="translate(325,1228)" d="m0 0" fill="#FCFCFC"/>
<path transform="translate(371,1227)" d="m0 0" fill="#FCFCFC"/>
<path transform="translate(324,1227)" d="m0 0" fill="#FCFCFC"/>
<path transform="translate(372,1226)" d="m0 0" fill="#FCFCFC"/>
<path transform="translate(323,1226)" d="m0 0" fill="#FCFCFC"/>
<path transform="translate(211,1226)" d="m0 0" fill="#FCFCFC"/>
<path transform="translate(373,1225)" d="m0 0" fill="#FCFCFC"/>
<path transform="translate(374,1224)" d="m0 0" fill="#FCFCFC"/>
<path transform="translate(209,1224)" d="m0 0" fill="#FCFCFC"/>
<path transform="translate(375,1223)" d="m0 0" fill="#FCFCFC"/>
<path transform="translate(376,1222)" d="m0 0" fill="#FCFCFC"/>
<path transform="translate(205,1220)" d="m0 0" fill="#FCFCFC"/>
<path transform="translate(379,1219)" d="m0 0" fill="#FCFCFC"/>
<path transform="translate(380,1218)" d="m0 0" fill="#FCFCFC"/>
<path transform="translate(381,1217)" d="m0 0" fill="#FCFCFC"/>
<path transform="translate(1853,1214)" d="m0 0" fill="#FCFCFC"/>
<path transform="translate(380,1172)" d="m0 0" fill="#FCFCFC"/>
<path transform="translate(378,1169)" d="m0 0" fill="#FCFCFC"/>
<path transform="translate(1448,1168)" d="m0 0" fill="#FCFCFC"/>
<path transform="translate(377,1168)" d="m0 0" fill="#FCFCFC"/>
<path transform="translate(376,1167)" d="m0 0" fill="#FCFCFC"/>
<path transform="translate(1336,1166)" d="m0 0" fill="#FCFCFC"/>
<path transform="translate(1337,1165)" d="m0 0" fill="#FCFCFC"/>
<path transform="translate(375,1165)" d="m0 0" fill="#FCFCFC"/>
<path transform="translate(323,1165)" d="m0 0" fill="#FCFCFC"/>
<path transform="translate(1451,1164)" d="m0 0" fill="#FCFCFC"/>
<path transform="translate(1338,1164)" d="m0 0" fill="#FCFCFC"/>
<path transform="translate(324,1164)" d="m0 0" fill="#FCFCFC"/>
<path transform="translate(1452,1163)" d="m0 0" fill="#FCFCFC"/>
<path transform="translate(325,1163)" d="m0 0" fill="#FCFCFC"/>
<path transform="translate(1453,1162)" d="m0 0" fill="#FCFCFC"/>
<path transform="translate(1339,1162)" d="m0 0" fill="#FCFCFC"/>
<path transform="translate(326,1162)" d="m0 0" fill="#FCFCFC"/>
<path transform="translate(372,1161)" d="m0 0" fill="#FCFCFC"/>
<path transform="translate(1455,1160)" d="m0 0" fill="#FCFCFC"/>
<path transform="translate(371,1160)" d="m0 0" fill="#FCFCFC"/>
<path transform="translate(370,1159)" d="m0 0" fill="#FCFCFC"/>
<path transform="translate(369,1158)" d="m0 0" fill="#FCFCFC"/>
<path transform="translate(329,1158)" d="m0 0" fill="#FCFCFC"/>
<path transform="translate(368,1157)" d="m0 0" fill="#FCFCFC"/>
<path transform="translate(330,1157)" d="m0 0" fill="#FCFCFC"/>
<path transform="translate(367,1156)" d="m0 0" fill="#FCFCFC"/>
<path transform="translate(366,1155)" d="m0 0" fill="#FCFCFC"/>
<path transform="translate(365,1154)" d="m0 0" fill="#FCFCFC"/>
<path transform="translate(364,1153)" d="m0 0" fill="#FCFCFC"/>
<path transform="translate(363,1152)" d="m0 0" fill="#FCFCFC"/>
<path transform="translate(220,1152)" d="m0 0" fill="#FCFCFC"/>
<path transform="translate(221,1151)" d="m0 0" fill="#FCFCFC"/>
<path transform="translate(340,1147)" d="m0 0" fill="#FCFCFC"/>
<path transform="translate(341,1146)" d="m0 0" fill="#FCFCFC"/>
<path transform="translate(343,1132)" d="m0 0" fill="#FCFCFC"/>
<path transform="translate(1467,1130)" d="m0 0" fill="#FCFCFC"/>
<path transform="translate(339,1128)" d="m0 0" fill="#FCFCFC"/>
<path transform="translate(338,1127)" d="m0 0" fill="#FCFCFC"/>
<path transform="translate(1829,1126)" d="m0 0" fill="#FCFCFC"/>
<path transform="translate(360,1126)" d="m0 0" fill="#FCFCFC"/>
<path transform="translate(220,1125)" d="m0 0" fill="#FCFCFC"/>
<path transform="translate(1831,1124)" d="m0 0" fill="#FCFCFC"/>
<path transform="translate(219,1124)" d="m0 0" fill="#FCFCFC"/>
<path transform="translate(218,1122)" d="m0 0" fill="#FCFCFC"/>
<path transform="translate(1833,1121)" d="m0 0" fill="#FCFCFC"/>
<path transform="translate(217,1121)" d="m0 0" fill="#FCFCFC"/>
<path transform="translate(1834,1120)" d="m0 0" fill="#FCFCFC"/>
<path transform="translate(1835,1119)" d="m0 0" fill="#FCFCFC"/>
<path transform="translate(1836,1118)" d="m0 0" fill="#FCFCFC"/>
<path transform="translate(215,1118)" d="m0 0" fill="#FCFCFC"/>
<path transform="translate(1837,1117)" d="m0 0" fill="#FCFCFC"/>
<path transform="translate(1838,1116)" d="m0 0" fill="#FCFCFC"/>
<path transform="translate(1839,1115)" d="m0 0" fill="#FCFCFC"/>
<path transform="translate(1840,1114)" d="m0 0" fill="#FCFCFC"/>
<path transform="translate(323,1112)" d="m0 0" fill="#FCFCFC"/>
<path transform="translate(1843,1111)" d="m0 0" fill="#FCFCFC"/>
<path transform="translate(322,1111)" d="m0 0" fill="#FCFCFC"/>
<path transform="translate(1844,1110)" d="m0 0" fill="#FCFCFC"/>
<path transform="translate(1847,1107)" d="m0 0" fill="#FCFCFC"/>
<path transform="translate(1848,1106)" d="m0 0" fill="#FCFCFC"/>
<path transform="translate(379,1106)" d="m0 0" fill="#FCFCFC"/>
<path transform="translate(380,1105)" d="m0 0" fill="#FCFCFC"/>
<path transform="translate(1851,1103)" d="m0 0" fill="#FCFCFC"/>
<path transform="translate(1423,1080)" d="m0 0" fill="#FCFCFC"/>
<path transform="translate(1415,1075)" d="m0 0" fill="#FCFCFC"/>
<path transform="translate(1339,1049)" d="m0 0" fill="#FCFCFC"/>
<path transform="translate(1340,1048)" d="m0 0" fill="#FCFCFC"/>
<path transform="translate(220,1012)" d="m0 0" fill="#FCFCFC"/>
<path transform="translate(218,1009)" d="m0 0" fill="#FCFCFC"/>
<path transform="translate(217,1008)" d="m0 0" fill="#FCFCFC"/>
<path transform="translate(216,1007)" d="m0 0" fill="#FCFCFC"/>
<path transform="translate(212 1e3)" d="m0 0" fill="#FCFCFC"/>
<path transform="translate(211 1e3)" d="m0 0" fill="#FCFCFC"/>
<path transform="translate(210,999)" d="m0 0" fill="#FCFCFC"/>
<path transform="translate(207,996)" d="m0 0" fill="#FCFCFC"/>
<path transform="translate(379,993)" d="m0 0" fill="#FCFCFC"/>
<path transform="translate(380,992)" d="m0 0" fill="#FCFCFC"/>
<path transform="translate(203,992)" d="m0 0" fill="#FCFCFC"/>
<path transform="translate(202,991)" d="m0 0" fill="#FCFCFC"/>
<path transform="translate(201,990)" d="m0 0" fill="#FCFCFC"/>
<path transform="translate(200,989)" d="m0 0" fill="#FCFCFC"/>
<path transform="translate(199,988)" d="m0 0" fill="#FCFCFC"/>
<path transform="translate(198,987)" d="m0 0" fill="#FCFCFC"/>
<path transform="translate(197,986)" d="m0 0" fill="#FCFCFC"/>
<path transform="translate(196,985)" d="m0 0" fill="#FCFCFC"/>
<path transform="translate(205,944)" d="m0 0" fill="#FCFCFC"/>
<path transform="translate(219,928)" d="m0 0" fill="#FCFCFC"/>
<path transform="translate(220,927)" d="m0 0" fill="#FCFCFC"/>
<path transform="translate(833,765)" d="m0 0" fill="#FCFCFC"/>
<path transform="translate(1172,764)" d="m0 0" fill="#FCFCFC"/>
<path transform="translate(1060,764)" d="m0 0" fill="#FCFCFC"/>
<path transform="translate(1173,763)" d="m0 0" fill="#FCFCFC"/>
<path transform="translate(1061,763)" d="m0 0" fill="#FCFCFC"/>
<path transform="translate(722,763)" d="m0 0" fill="#FCFCFC"/>
<path transform="translate(1215,762)" d="m0 0" fill="#FCFCFC"/>
<path transform="translate(1174,762)" d="m0 0" fill="#FCFCFC"/>
<path transform="translate(1102,762)" d="m0 0" fill="#FCFCFC"/>
<path transform="translate(1062,762)" d="m0 0" fill="#FCFCFC"/>
<path transform="translate(989,762)" d="m0 0" fill="#FCFCFC"/>
<path transform="translate(949,762)" d="m0 0" fill="#FCFCFC"/>
<path transform="translate(723,762)" d="m0 0" fill="#FCFCFC"/>
<path transform="translate(1063,761)" d="m0 0" fill="#FCFCFC"/>
<path transform="translate(877,723)" d="m0 0" fill="#FCFCFC"/>
<path transform="translate(764,723)" d="m0 0" fill="#FCFCFC"/>
<path transform="translate(879,721)" d="m0 0" fill="#FCFCFC"/>
<path transform="translate(1105,720)" d="m0 0" fill="#FCFCFC"/>
<path transform="translate(880,720)" d="m0 0" fill="#FCFCFC"/>
<path transform="translate(1107,719)" d="m0 0" fill="#FCFCFC"/>
<path transform="translate(881,719)" d="m0 0" fill="#FCFCFC"/>
<path transform="translate(882,718)" d="m0 0" fill="#FCFCFC"/>
<path transform="translate(770,717)" d="m0 0" fill="#FCFCFC"/>
<path transform="translate(774,713)" d="m0 0" fill="#FCFCFC"/>
<path transform="translate(775,712)" d="m0 0" fill="#FCFCFC"/>
<path transform="translate(1232,707)" d="m0 0" fill="#FCFCFC"/>
<path transform="translate(1120,707)" d="m0 0" fill="#FCFCFC"/>
</svg>
