<svg width="32" height="29" viewBox="0 0 32 29" fill="none" xmlns="http://www.w3.org/2000/svg">
<path id="&#226;&#128;&#156;" d="M3.29473 12.4512C1.568 12.4512 0.704626 11.5862 0.704626 9.85631V2.82137C0.704626 1.09147 1.568 0.226521 3.29473 0.226521H9.97146C11.6982 0.226521 12.5616 1.09147 12.5616 2.82137V9.85631C12.5616 13.8928 12.1395 17.4102 11.2953 20.4087C10.4127 23.4457 8.70518 26.0982 6.17263 28.3663C5.32845 29.0967 4.61857 29.1928 4.04299 28.6546L1.45288 26.2327C0.8773 25.6945 1.0116 25.041 1.85579 24.2722C3.16043 23.1189 4.23485 21.4467 5.07903 19.2554C5.88484 17.1027 6.28775 14.8346 6.28775 12.4512H3.29473ZM22.2889 12.4512C20.5621 12.4512 19.6988 11.5862 19.6988 9.85631V2.82137C19.6988 1.09147 20.5621 0.226521 22.2889 0.226521H28.9656C30.6923 0.226521 31.5557 1.09147 31.5557 2.82137V9.85631C31.5557 13.8928 31.1336 17.4102 30.2894 20.4087C29.4069 23.4457 27.6993 26.0982 25.1668 28.3663C24.3226 29.0967 23.6127 29.1928 23.0371 28.6546L20.447 26.2327C19.8714 25.6945 20.0057 25.041 20.8499 24.2722C22.1546 23.1189 23.229 21.4467 24.0732 19.2554C24.879 17.1027 25.2819 14.8346 25.2819 12.4512H22.2889Z" fill="black"/>
</svg>
