<svg width="18" height="17" viewBox="0 0 18 17" fill="none" xmlns="http://www.w3.org/2000/svg">
<g id="Emphasis" clip-path="url(#clip0_68_3397)">
<path id="Vector" d="M9.4209 0.780273C8.3584 0.780273 7.3623 0.985026 6.43262 1.39453C5.49186 1.79297 4.67285 2.34082 3.97559 3.03809C3.27832 3.73535 2.73047 4.54883 2.33203 5.47852C1.92253 6.41927 1.71777 7.4209 1.71777 8.4834C1.70671 8.88184 1.72331 9.28304 1.76758 9.68701C1.81185 10.091 1.88379 10.4867 1.9834 10.874L0.954102 10.2764C0.821289 10.1989 0.682943 10.1795 0.539062 10.2183C0.395182 10.257 0.284505 10.3372 0.207031 10.459C0.140625 10.5918 0.124023 10.7301 0.157227 10.874C0.19043 11.0179 0.273438 11.1286 0.40625 11.2061L2.84668 12.6172H2.86328C2.87435 12.6283 2.88542 12.6366 2.89648 12.6421C2.90755 12.6476 2.91862 12.6504 2.92969 12.6504C2.94076 12.6504 2.95182 12.6532 2.96289 12.6587C2.97396 12.6642 2.98503 12.667 2.99609 12.667C3.00716 12.667 3.01823 12.6698 3.0293 12.6753C3.04036 12.6808 3.05143 12.6836 3.0625 12.6836C3.07357 12.6836 3.08187 12.6836 3.0874 12.6836C3.09294 12.6836 3.10124 12.6836 3.1123 12.6836C3.12337 12.6836 3.12891 12.6836 3.12891 12.6836C3.13997 12.6836 3.14827 12.6836 3.15381 12.6836C3.15934 12.6836 3.16211 12.6836 3.16211 12.6836C3.17318 12.6836 3.18148 12.6836 3.18701 12.6836C3.19255 12.6836 3.19531 12.6836 3.19531 12.6836C3.21745 12.6725 3.23405 12.667 3.24512 12.667C3.25618 12.667 3.26725 12.667 3.27832 12.667C3.28939 12.6559 3.30046 12.6476 3.31152 12.6421C3.32259 12.6366 3.33366 12.6338 3.34473 12.6338C3.35579 12.6227 3.36686 12.6144 3.37793 12.6089C3.389 12.6034 3.39453 12.6006 3.39453 12.6006C3.41667 12.5895 3.43604 12.5757 3.45264 12.5591C3.46924 12.5425 3.48861 12.5231 3.51074 12.501C3.52181 12.4899 3.53011 12.4788 3.53564 12.4678C3.54118 12.4567 3.54395 12.4512 3.54395 12.4512C3.55501 12.4401 3.56055 12.4318 3.56055 12.4263C3.56055 12.4207 3.56608 12.418 3.57715 12.418C3.57715 12.4069 3.57715 12.4014 3.57715 12.4014C3.57715 12.4014 3.57715 12.3958 3.57715 12.3848C3.58822 12.3848 3.59652 12.3792 3.60205 12.3682C3.60758 12.3571 3.61035 12.3516 3.61035 12.3516L4.57324 9.94434C4.62858 9.81152 4.62858 9.67594 4.57324 9.5376C4.5179 9.39925 4.41829 9.30241 4.27441 9.24707C4.1416 9.19173 4.00602 9.19173 3.86768 9.24707C3.72933 9.30241 3.63249 9.40202 3.57715 9.5459L3.0791 10.791C2.97949 10.4147 2.90479 10.0356 2.85498 9.65381C2.80518 9.27197 2.78581 8.88737 2.79688 8.5C2.79688 7.59245 2.96842 6.7347 3.31152 5.92676C3.65462 5.11882 4.12777 4.41325 4.73096 3.81006C5.33415 3.20687 6.03971 2.73372 6.84766 2.39062C7.64453 2.04753 8.50228 1.87598 9.4209 1.87598C10.3395 1.87598 11.2028 2.04753 12.0107 2.39062C12.8076 2.73372 13.5076 3.20687 14.1108 3.81006C14.714 4.41325 15.1872 5.11882 15.5303 5.92676C15.8844 6.72363 16.0615 7.58138 16.0615 8.5C16.0615 9.41862 15.8844 10.2764 15.5303 11.0732C15.1872 11.8812 14.7168 12.5868 14.1191 13.1899C13.5215 13.7931 12.8187 14.2663 12.0107 14.6094C11.2028 14.9635 10.3395 15.1406 9.4209 15.1406C9.27702 15.1406 9.14974 15.1932 9.03906 15.2983C8.92839 15.4035 8.87305 15.528 8.87305 15.6719C8.87305 15.8268 8.92562 15.9569 9.03076 16.062C9.13591 16.1672 9.26595 16.2197 9.4209 16.2197C10.4834 16.2197 11.485 16.015 12.4258 15.6055C13.3665 15.207 14.1855 14.6592 14.8828 13.9619C15.5801 13.2646 16.1279 12.4456 16.5264 11.5049C16.9359 10.5641 17.1406 9.5625 17.1406 8.5C17.1406 7.4375 16.9359 6.43587 16.5264 5.49512C16.1279 4.56543 15.5801 3.74919 14.8828 3.04639C14.1855 2.34359 13.3665 1.79297 12.4258 1.39453C11.4961 0.985026 10.4945 0.780273 9.4209 0.780273ZM9.22168 9.5293C9.24382 9.54036 9.26872 9.54867 9.29639 9.5542C9.32406 9.55973 9.35449 9.56803 9.3877 9.5791C9.39876 9.5791 9.40706 9.5791 9.4126 9.5791C9.41813 9.5791 9.4209 9.5791 9.4209 9.5791C9.4541 9.5791 9.4873 9.57633 9.52051 9.5708C9.55371 9.56527 9.58138 9.55697 9.60352 9.5459C9.61458 9.53483 9.62288 9.5293 9.62842 9.5293C9.63395 9.5293 9.64225 9.52376 9.65332 9.5127C9.67546 9.50163 9.69759 9.49056 9.71973 9.47949C9.74186 9.46842 9.75846 9.45736 9.76953 9.44629C9.7806 9.43522 9.7889 9.42969 9.79443 9.42969C9.79997 9.42969 9.80273 9.42969 9.80273 9.42969L13.1729 6.05957C13.2835 5.94889 13.3389 5.81885 13.3389 5.66943C13.3389 5.52002 13.2835 5.39551 13.1729 5.2959C13.0622 5.18522 12.9321 5.12988 12.7827 5.12988C12.6333 5.12988 12.5088 5.18522 12.4092 5.2959L9.28809 8.40039L6.49902 7.23828C6.35514 7.18294 6.2168 7.18571 6.08398 7.24658C5.95117 7.30745 5.8571 7.40983 5.80176 7.55371C5.75749 7.68652 5.76025 7.81934 5.81006 7.95215C5.85986 8.08496 5.95117 8.17904 6.08398 8.23438L9.22168 9.5293Z" fill="#333333"/>
</g>
<defs>
<clipPath id="clip0_68_3397">
<rect width="17" height="17" fill="white" transform="matrix(1 0 0 -1 0.140625 17)"/>
</clipPath>
</defs>
</svg>
