<svg width="25" height="25" viewBox="0 0 25 25" fill="none" xmlns="http://www.w3.org/2000/svg">
<g id="Group 26607">
<path id="Vector" fill-rule="evenodd" clip-rule="evenodd" d="M12.2404 5.51282C11.3302 5.51282 10.4574 5.87404 9.81385 6.51702C9.1703 7.16 8.80876 8.03207 8.80876 8.94139C8.80876 9.8507 9.1703 10.7228 9.81385 11.3658C10.4574 12.0087 11.3302 12.37 12.2404 12.37C13.1505 12.37 14.0233 12.0087 14.6669 11.3658C15.3104 10.7228 15.672 9.8507 15.672 8.94139C15.672 8.03207 15.3104 7.16 14.6669 6.51702C14.0233 5.87404 13.1505 5.51282 12.2404 5.51282ZM10.5246 13.2271C9.61444 13.2271 8.7416 13.5883 8.09805 14.2313C7.4545 14.8743 7.09296 15.7464 7.09296 16.6557V17.5128C7.09296 18.4557 7.86507 19.2271 8.80876 19.2271H15.672C16.127 19.2271 16.5634 19.0465 16.8852 18.725C17.207 18.4035 17.3878 17.9675 17.3878 17.5128V16.6557C17.3878 15.7464 17.0262 14.8743 16.3827 14.2313C15.7391 13.5883 14.8663 13.2271 13.9562 13.2271H10.5246Z" fill="#6F6F6F"/>
<circle id="Ellipse 632" cx="12.2197" cy="12.37" r="11.5" stroke="#6F6F6F"/>
</g>
</svg>
