<svg width="26" height="26" viewBox="0 0 26 26" fill="none" xmlns="http://www.w3.org/2000/svg">
<path d="M13 4.0651C12.751 4.0651 12.5045 4.11414 12.2745 4.20942C12.0444 4.30469 11.8354 4.44434 11.6594 4.62038C11.4834 4.79643 11.3437 5.00542 11.2484 5.23543C11.1532 5.46545 11.1041 5.71197 11.1041 5.96094C11.1041 6.2099 11.1532 6.45643 11.2484 6.68644C11.3437 6.91645 11.4834 7.12545 11.6594 7.30149C11.8354 7.47754 12.0444 7.61719 12.2745 7.71246C12.5045 7.80773 12.751 7.85677 13 7.85677C13.5028 7.85677 13.985 7.65703 14.3405 7.30149C14.6961 6.94596 14.8958 6.46374 14.8958 5.96094C14.8958 5.45813 14.6961 4.97592 14.3405 4.62038C13.985 4.26484 13.5028 4.0651 13 4.0651ZM9.74996 5.96094C9.74996 5.09898 10.0924 4.27233 10.7019 3.66284C11.3114 3.05335 12.138 2.71094 13 2.71094C13.8619 2.71094 14.6886 3.05335 15.2981 3.66284C15.9075 4.27233 16.25 5.09898 16.25 5.96094C16.25 6.82289 15.9075 7.64954 15.2981 8.25903C14.6886 8.86853 13.8619 9.21094 13 9.21094C12.138 9.21094 11.3114 8.86853 10.7019 8.25903C10.0924 7.64954 9.74996 6.82289 9.74996 5.96094ZM20.0416 5.14844C19.6825 5.14844 19.338 5.29111 19.0841 5.54506C18.8301 5.79902 18.6875 6.14346 18.6875 6.5026C18.6875 6.86175 18.8301 7.20619 19.0841 7.46014C19.338 7.7141 19.6825 7.85677 20.0416 7.85677C20.4008 7.85677 20.7452 7.7141 20.9992 7.46014C21.2531 7.20619 21.3958 6.86175 21.3958 6.5026C21.3958 6.14346 21.2531 5.79902 20.9992 5.54506C20.7452 5.29111 20.4008 5.14844 20.0416 5.14844ZM17.3333 6.5026C17.3333 5.78431 17.6186 5.09543 18.1265 4.58752C18.6345 4.07961 19.3233 3.79427 20.0416 3.79427C20.7599 3.79427 21.4488 4.07961 21.9567 4.58752C22.4646 5.09543 22.75 5.78431 22.75 6.5026C22.75 7.2209 22.4646 7.90977 21.9567 8.41769C21.4488 8.9256 20.7599 9.21094 20.0416 9.21094C19.3233 9.21094 18.6345 8.9256 18.1265 8.41769C17.6186 7.90977 17.3333 7.2209 17.3333 6.5026ZM4.60413 6.5026C4.60413 6.14346 4.7468 5.79902 5.00075 5.54506C5.25471 5.29111 5.59915 5.14844 5.95829 5.14844C6.31744 5.14844 6.66188 5.29111 6.91583 5.54506C7.16979 5.79902 7.31246 6.14346 7.31246 6.5026C7.31246 6.86175 7.16979 7.20619 6.91583 7.46014C6.66188 7.7141 6.31744 7.85677 5.95829 7.85677C5.59915 7.85677 5.25471 7.7141 5.00075 7.46014C4.7468 7.20619 4.60413 6.86175 4.60413 6.5026ZM5.95829 3.79427C5.24 3.79427 4.55112 4.07961 4.04321 4.58752C3.5353 5.09543 3.24996 5.78431 3.24996 6.5026C3.24996 7.2209 3.5353 7.90977 4.04321 8.41769C4.55112 8.9256 5.24 9.21094 5.95829 9.21094C6.67659 9.21094 7.36546 8.9256 7.87337 8.41769C8.38128 7.90977 8.66663 7.2209 8.66663 6.5026C8.66663 5.78431 8.38128 5.09543 7.87337 4.58752C7.36546 4.07961 6.67659 3.79427 5.95829 3.79427ZM8.12496 12.5964C8.12496 11.9858 8.3675 11.4003 8.79922 10.9685C9.23095 10.5368 9.81649 10.2943 10.427 10.2943H15.5729C16.1834 10.2943 16.769 10.5368 17.2007 10.9685C17.6324 11.4003 17.875 11.9858 17.875 12.5964V18.4193C17.875 19.7122 17.3613 20.9522 16.4471 21.8664C15.5329 22.7807 14.2929 23.2943 13 23.2943C11.707 23.2943 10.4671 22.7807 9.55281 21.8664C8.63857 20.9522 8.12496 19.7122 8.12496 18.4193V12.5964ZM13 21.9401C13.9337 21.9401 14.8293 21.5692 15.4896 20.9089C16.1498 20.2486 16.5208 19.3531 16.5208 18.4193V12.5964C16.5208 12.345 16.4209 12.1038 16.2432 11.9261C16.0654 11.7483 15.8243 11.6484 15.5729 11.6484H10.427C10.1756 11.6484 9.93453 11.7483 9.75676 11.9261C9.579 12.1038 9.47913 12.345 9.47913 12.5964V18.4193C9.47913 19.3531 9.85007 20.2486 10.5104 20.9089C11.1706 21.5692 12.0662 21.9401 13 21.9401ZM5.95829 20.3151C6.41126 20.3158 6.85539 20.1897 7.24042 19.9511C7.35904 20.3985 7.52858 20.8248 7.742 21.224C7.16422 21.532 6.51653 21.6852 5.86199 21.6686C5.20745 21.6519 4.56838 21.4661 4.00699 21.1291C3.44559 20.7922 2.98103 20.3156 2.65851 19.7458C2.336 19.176 2.16654 18.5324 2.16663 17.8776V12.5969C2.16655 12.2945 2.22605 11.9951 2.34171 11.7158C2.45736 11.4364 2.62692 11.1826 2.8407 10.9687C3.05447 10.7549 3.30828 10.5853 3.58761 10.4696C3.86695 10.3538 4.16635 10.2943 4.46871 10.2943H7.44788C7.60388 10.2943 7.75663 10.31 7.90342 10.3392C7.56608 10.7157 7.31749 11.1631 7.17596 11.6484H4.46871C4.21731 11.6484 3.9762 11.7483 3.79843 11.9261C3.62066 12.1038 3.52079 12.345 3.52079 12.5964V17.8776C3.52079 18.5241 3.7776 19.1441 4.23472 19.6012C4.69184 20.0583 5.31183 20.3151 5.95829 20.3151ZM20.0416 21.6693C19.4195 21.6703 18.8068 21.5175 18.2579 21.2246C18.4713 20.8248 18.6409 20.3985 18.7595 19.9511C19.1288 20.1795 19.5523 20.3051 19.9864 20.3149C20.4204 20.3248 20.8492 20.2185 21.2285 20.0071C21.6077 19.7957 21.9236 19.4868 22.1434 19.1125C22.3633 18.7381 22.4792 18.3118 22.4791 17.8776V12.5964C22.4791 12.345 22.3793 12.1038 22.2015 11.9261C22.0237 11.7483 21.7826 11.6484 21.5312 11.6484H18.824C18.6823 11.1631 18.4335 10.7157 18.096 10.3392C18.2438 10.31 18.396 10.2943 18.552 10.2943H21.5312C22.1418 10.2943 22.7273 10.5368 23.159 10.9685C23.5907 11.4003 23.8333 11.9858 23.8333 12.5964V17.8776C23.8333 18.8832 23.4338 19.8476 22.7227 20.5587C22.0117 21.2698 21.0472 21.6693 20.0416 21.6693Z" fill="white"/>
</svg>
